%TF.GenerationSoftware,KiCad,Pcbnew,9.0.4*%
%TF.CreationDate,2025-11-16T22:43:31-07:00*%
%TF.ProjectId,Nixie Clock ECE5930,4e697869-6520-4436-9c6f-636b20454345,rev?*%
%TF.SameCoordinates,Original*%
%TF.FileFunction,Soldermask,Bot*%
%TF.FilePolarity,Negative*%
%FSLAX46Y46*%
G04 Gerber Fmt 4.6, Leading zero omitted, Abs format (unit mm)*
G04 Created by KiCad (PCBNEW 9.0.4) date 2025-11-16 22:43:31*
%MOMM*%
%LPD*%
G01*
G04 APERTURE LIST*
G04 Aperture macros list*
%AMRoundRect*
0 Rectangle with rounded corners*
0 $1 Rounding radius*
0 $2 $3 $4 $5 $6 $7 $8 $9 X,Y pos of 4 corners*
0 Add a 4 corners polygon primitive as box body*
4,1,4,$2,$3,$4,$5,$6,$7,$8,$9,$2,$3,0*
0 Add four circle primitives for the rounded corners*
1,1,$1+$1,$2,$3*
1,1,$1+$1,$4,$5*
1,1,$1+$1,$6,$7*
1,1,$1+$1,$8,$9*
0 Add four rect primitives between the rounded corners*
20,1,$1+$1,$2,$3,$4,$5,0*
20,1,$1+$1,$4,$5,$6,$7,0*
20,1,$1+$1,$6,$7,$8,$9,0*
20,1,$1+$1,$8,$9,$2,$3,0*%
%AMFreePoly0*
4,1,9,3.862500,-0.866500,0.737500,-0.866500,0.737500,-0.450000,-0.737500,-0.450000,-0.737500,0.450000,0.737500,0.450000,0.737500,0.866500,3.862500,0.866500,3.862500,-0.866500,3.862500,-0.866500,$1*%
G04 Aperture macros list end*
%ADD10C,1.346200*%
%ADD11C,2.100000*%
%ADD12R,1.498600X1.498600*%
%ADD13C,1.498600*%
%ADD14RoundRect,0.250000X-0.550000X-0.550000X0.550000X-0.550000X0.550000X0.550000X-0.550000X0.550000X0*%
%ADD15C,1.600000*%
%ADD16RoundRect,0.250000X0.650000X2.450000X-0.650000X2.450000X-0.650000X-2.450000X0.650000X-2.450000X0*%
%ADD17R,1.925000X0.650000*%
%ADD18RoundRect,0.250000X-0.650000X-2.450000X0.650000X-2.450000X0.650000X2.450000X-0.650000X2.450000X0*%
%ADD19RoundRect,0.100000X-0.130000X-0.100000X0.130000X-0.100000X0.130000X0.100000X-0.130000X0.100000X0*%
%ADD20O,5.204000X2.704000*%
%ADD21O,4.704000X2.454000*%
%ADD22O,2.454000X4.704000*%
%ADD23R,0.850000X0.850000*%
%ADD24RoundRect,0.225000X0.425000X0.225000X-0.425000X0.225000X-0.425000X-0.225000X0.425000X-0.225000X0*%
%ADD25FreePoly0,180.000000*%
%ADD26RoundRect,0.150000X-0.825000X-0.150000X0.825000X-0.150000X0.825000X0.150000X-0.825000X0.150000X0*%
G04 APERTURE END LIST*
D10*
%TO.C,N7*%
X224907300Y-58265360D03*
X235092700Y-58265360D03*
X236144260Y-55494220D03*
X235786120Y-52555440D03*
X234104640Y-50117040D03*
X231480820Y-48740360D03*
X228519180Y-48740360D03*
X225895360Y-50117040D03*
X224213880Y-52555440D03*
X223855740Y-55494220D03*
X230000000Y-60937440D03*
X232875280Y-60228780D03*
X227124720Y-60228780D03*
%TD*%
%TO.C,N3*%
X154907300Y-58265360D03*
X165092700Y-58265360D03*
X166144260Y-55494220D03*
X165786120Y-52555440D03*
X164104640Y-50117040D03*
X161480820Y-48740360D03*
X158519180Y-48740360D03*
X155895360Y-50117040D03*
X154213880Y-52555440D03*
X153855740Y-55494220D03*
X160000000Y-60937440D03*
X162875280Y-60228780D03*
X157124720Y-60228780D03*
%TD*%
D11*
%TO.C,REF\u002A\u002A*%
X241935000Y-26670000D03*
%TD*%
D10*
%TO.C,N1*%
X104907300Y-58265360D03*
X115092700Y-58265360D03*
X116144260Y-55494220D03*
X115786120Y-52555440D03*
X114104640Y-50117040D03*
X111480820Y-48740360D03*
X108519180Y-48740360D03*
X105895360Y-50117040D03*
X104213880Y-52555440D03*
X103855740Y-55494220D03*
X110000000Y-60937440D03*
X112875280Y-60228780D03*
X107124720Y-60228780D03*
%TD*%
D12*
%TO.C,SW6*%
X95114998Y-32249751D03*
D13*
X95114998Y-25749750D03*
X99614999Y-32249751D03*
X99614999Y-25749750D03*
%TD*%
D11*
%TO.C,REF\u002A\u002A*%
X33020000Y-26670000D03*
%TD*%
D10*
%TO.C,N2*%
X124907300Y-58125360D03*
X135092700Y-58125360D03*
X136144260Y-55354220D03*
X135786120Y-52415440D03*
X134104640Y-49977040D03*
X131480820Y-48600360D03*
X128519180Y-48600360D03*
X125895360Y-49977040D03*
X124213880Y-52415440D03*
X123855740Y-55354220D03*
X130000000Y-60797440D03*
X132875280Y-60088780D03*
X127124720Y-60088780D03*
%TD*%
D14*
%TO.C,U1*%
X66500000Y-25800000D03*
D15*
X66500000Y-28340000D03*
X66500000Y-30880000D03*
X66500000Y-33420000D03*
X66500000Y-35960000D03*
X66500000Y-38500000D03*
X66500000Y-41040000D03*
X66500000Y-43580000D03*
X66500000Y-46120000D03*
X66500000Y-48660000D03*
X66500000Y-51200000D03*
X66500000Y-53740000D03*
X66500000Y-56280000D03*
X66500000Y-58820000D03*
X74120000Y-58820000D03*
X74120000Y-56280000D03*
X74120000Y-53740000D03*
X74120000Y-51200000D03*
X74120000Y-48660000D03*
X74120000Y-46120000D03*
X74120000Y-43580000D03*
X74120000Y-41040000D03*
X74120000Y-38500000D03*
X74120000Y-35960000D03*
X74120000Y-33420000D03*
X74120000Y-30880000D03*
X74120000Y-28340000D03*
X74120000Y-25800000D03*
%TD*%
D10*
%TO.C,N6*%
X204907300Y-58265360D03*
X215092700Y-58265360D03*
X216144260Y-55494220D03*
X215786120Y-52555440D03*
X214104640Y-50117040D03*
X211480820Y-48740360D03*
X208519180Y-48740360D03*
X205895360Y-50117040D03*
X204213880Y-52555440D03*
X203855740Y-55494220D03*
X210000000Y-60937440D03*
X212875280Y-60228780D03*
X207124720Y-60228780D03*
%TD*%
D11*
%TO.C,REF\u002A\u002A*%
X33020000Y-61595000D03*
%TD*%
D10*
%TO.C,N5*%
X174907300Y-58265360D03*
X185092700Y-58265360D03*
X186144260Y-55494220D03*
X185786120Y-52555440D03*
X184104640Y-50117040D03*
X181480820Y-48740360D03*
X178519180Y-48740360D03*
X175895360Y-50117040D03*
X174213880Y-52555440D03*
X173855740Y-55494220D03*
X180000000Y-60937440D03*
X182875280Y-60228780D03*
X177124720Y-60228780D03*
%TD*%
D12*
%TO.C,SW4*%
X77939000Y-32249751D03*
D13*
X77939000Y-25749750D03*
X82439001Y-32249751D03*
X82439001Y-25749750D03*
%TD*%
D11*
%TO.C,REF\u002A\u002A*%
X241935000Y-61595000D03*
%TD*%
D12*
%TO.C,SW5*%
X86526999Y-32249751D03*
D13*
X86526999Y-25749750D03*
X91027000Y-32249751D03*
X91027000Y-25749750D03*
%TD*%
D16*
%TO.C,C2*%
X61050000Y-45000000D03*
X55950000Y-45000000D03*
%TD*%
D17*
%TO.C,U5*%
X87262000Y-36195000D03*
X87262000Y-37465000D03*
X87262000Y-38735000D03*
X87262000Y-40005000D03*
X87262000Y-41275000D03*
X87262000Y-42545000D03*
X87262000Y-43815000D03*
X87262000Y-45085000D03*
X77838000Y-45085000D03*
X77838000Y-43815000D03*
X77838000Y-42545000D03*
X77838000Y-41275000D03*
X77838000Y-40005000D03*
X77838000Y-38735000D03*
X77838000Y-37465000D03*
X77838000Y-36195000D03*
%TD*%
D18*
%TO.C,C3*%
X55950000Y-53000000D03*
X61050000Y-53000000D03*
%TD*%
%TO.C,C4*%
X55950000Y-36000000D03*
X61050000Y-36000000D03*
%TD*%
D19*
%TO.C,R1*%
X63680000Y-27000000D03*
X64320000Y-27000000D03*
%TD*%
%TO.C,R3*%
X63680000Y-31000000D03*
X64320000Y-31000000D03*
%TD*%
D18*
%TO.C,C5*%
X55950000Y-27000000D03*
X61050000Y-27000000D03*
%TD*%
D20*
%TO.C,J2*%
X85725000Y-51785000D03*
D21*
X85725000Y-57785000D03*
D22*
X81025000Y-54785000D03*
%TD*%
D23*
%TO.C,J3*%
X95990000Y-54610000D03*
%TD*%
D24*
%TO.C,U6*%
X98851000Y-59460000D03*
D25*
X98763500Y-60960000D03*
D24*
X98851000Y-62460000D03*
%TD*%
D18*
%TO.C,C1*%
X55950000Y-61500000D03*
X61050000Y-61500000D03*
%TD*%
D26*
%TO.C,U4*%
X90870000Y-50165000D03*
X90870000Y-48895000D03*
X90870000Y-47625000D03*
X90870000Y-46355000D03*
X95820000Y-46355000D03*
X95820000Y-47625000D03*
X95820000Y-48895000D03*
X95820000Y-50165000D03*
%TD*%
D19*
%TO.C,R2*%
X63680000Y-36000000D03*
X64320000Y-36000000D03*
%TD*%
D23*
%TO.C,J1*%
X78000000Y-51000000D03*
%TD*%
M02*
