%TF.GenerationSoftware,KiCad,Pcbnew,9.0.4*%
%TF.CreationDate,2025-11-16T22:43:31-07:00*%
%TF.ProjectId,Nixie Clock ECE5930,4e697869-6520-4436-9c6f-636b20454345,rev?*%
%TF.SameCoordinates,Original*%
%TF.FileFunction,Copper,L2,Bot*%
%TF.FilePolarity,Positive*%
%FSLAX46Y46*%
G04 Gerber Fmt 4.6, Leading zero omitted, Abs format (unit mm)*
G04 Created by KiCad (PCBNEW 9.0.4) date 2025-11-16 22:43:31*
%MOMM*%
%LPD*%
G01*
G04 APERTURE LIST*
G04 Aperture macros list*
%AMRoundRect*
0 Rectangle with rounded corners*
0 $1 Rounding radius*
0 $2 $3 $4 $5 $6 $7 $8 $9 X,Y pos of 4 corners*
0 Add a 4 corners polygon primitive as box body*
4,1,4,$2,$3,$4,$5,$6,$7,$8,$9,$2,$3,0*
0 Add four circle primitives for the rounded corners*
1,1,$1+$1,$2,$3*
1,1,$1+$1,$4,$5*
1,1,$1+$1,$6,$7*
1,1,$1+$1,$8,$9*
0 Add four rect primitives between the rounded corners*
20,1,$1+$1,$2,$3,$4,$5,0*
20,1,$1+$1,$4,$5,$6,$7,0*
20,1,$1+$1,$6,$7,$8,$9,0*
20,1,$1+$1,$8,$9,$2,$3,0*%
%AMFreePoly0*
4,1,9,3.862500,-0.866500,0.737500,-0.866500,0.737500,-0.450000,-0.737500,-0.450000,-0.737500,0.450000,0.737500,0.450000,0.737500,0.866500,3.862500,0.866500,3.862500,-0.866500,3.862500,-0.866500,$1*%
G04 Aperture macros list end*
%TA.AperFunction,ComponentPad*%
%ADD10C,1.346200*%
%TD*%
%TA.AperFunction,ComponentPad*%
%ADD11R,1.498600X1.498600*%
%TD*%
%TA.AperFunction,ComponentPad*%
%ADD12C,1.498600*%
%TD*%
%TA.AperFunction,ComponentPad*%
%ADD13C,1.107440*%
%TD*%
%TA.AperFunction,ComponentPad*%
%ADD14RoundRect,0.250000X-0.550000X-0.550000X0.550000X-0.550000X0.550000X0.550000X-0.550000X0.550000X0*%
%TD*%
%TA.AperFunction,ComponentPad*%
%ADD15C,1.600000*%
%TD*%
%TA.AperFunction,SMDPad,CuDef*%
%ADD16RoundRect,0.250000X0.650000X2.450000X-0.650000X2.450000X-0.650000X-2.450000X0.650000X-2.450000X0*%
%TD*%
%TA.AperFunction,SMDPad,CuDef*%
%ADD17R,1.925000X0.650000*%
%TD*%
%TA.AperFunction,SMDPad,CuDef*%
%ADD18RoundRect,0.250000X-0.650000X-2.450000X0.650000X-2.450000X0.650000X2.450000X-0.650000X2.450000X0*%
%TD*%
%TA.AperFunction,SMDPad,CuDef*%
%ADD19RoundRect,0.100000X-0.130000X-0.100000X0.130000X-0.100000X0.130000X0.100000X-0.130000X0.100000X0*%
%TD*%
%TA.AperFunction,ComponentPad*%
%ADD20O,5.000000X2.500000*%
%TD*%
%TA.AperFunction,ComponentPad*%
%ADD21O,4.500000X2.250000*%
%TD*%
%TA.AperFunction,ComponentPad*%
%ADD22O,2.250000X4.500000*%
%TD*%
%TA.AperFunction,ComponentPad*%
%ADD23R,0.850000X0.850000*%
%TD*%
%TA.AperFunction,SMDPad,CuDef*%
%ADD24RoundRect,0.225000X0.425000X0.225000X-0.425000X0.225000X-0.425000X-0.225000X0.425000X-0.225000X0*%
%TD*%
%TA.AperFunction,SMDPad,CuDef*%
%ADD25FreePoly0,180.000000*%
%TD*%
%TA.AperFunction,SMDPad,CuDef*%
%ADD26RoundRect,0.150000X-0.825000X-0.150000X0.825000X-0.150000X0.825000X0.150000X-0.825000X0.150000X0*%
%TD*%
%TA.AperFunction,ViaPad*%
%ADD27C,0.600000*%
%TD*%
%TA.AperFunction,Conductor*%
%ADD28C,0.200000*%
%TD*%
G04 APERTURE END LIST*
D10*
%TO.P,N7,0,0*%
%TO.N,Net-(U3-HV30)*%
X224907300Y-58265360D03*
%TO.P,N7,1,1*%
%TO.N,Net-(U3-HV21)*%
X235092700Y-58265360D03*
%TO.P,N7,2,2*%
%TO.N,Net-(U3-HV22)*%
X236144260Y-55494220D03*
%TO.P,N7,3,3*%
%TO.N,Net-(U3-HV23)*%
X235786120Y-52555440D03*
%TO.P,N7,4,4*%
%TO.N,Net-(U3-HV24)*%
X234104640Y-50117040D03*
%TO.P,N7,5,5*%
%TO.N,Net-(U3-HV25)*%
X231480820Y-48740360D03*
%TO.P,N7,6,6*%
%TO.N,Net-(U3-HV26)*%
X228519180Y-48740360D03*
%TO.P,N7,7,7*%
%TO.N,Net-(U3-HV27)*%
X225895360Y-50117040D03*
%TO.P,N7,8,8*%
%TO.N,Net-(U3-HV28)*%
X224213880Y-52555440D03*
%TO.P,N7,9,9*%
%TO.N,Net-(U3-HV29)*%
X223855740Y-55494220D03*
%TO.P,N7,A,A*%
%TO.N,Net-(N7-PadA)*%
X230000000Y-60937440D03*
%TO.P,N7,LHDP,LHDP*%
%TO.N,unconnected-(N7-PadLHDP)*%
X232875280Y-60228780D03*
%TO.P,N7,RHDP,RHDP*%
%TO.N,unconnected-(N7-PadRHDP)*%
X227124720Y-60228780D03*
%TD*%
%TO.P,N3,0,0*%
%TO.N,Net-(U2-HV30)*%
X154907300Y-58265360D03*
%TO.P,N3,1,1*%
%TO.N,Net-(U2-HV21)*%
X165092700Y-58265360D03*
%TO.P,N3,2,2*%
%TO.N,Net-(U2-HV22)*%
X166144260Y-55494220D03*
%TO.P,N3,3,3*%
%TO.N,Net-(U2-HV23)*%
X165786120Y-52555440D03*
%TO.P,N3,4,4*%
%TO.N,Net-(U2-HV24)*%
X164104640Y-50117040D03*
%TO.P,N3,5,5*%
%TO.N,Net-(U2-HV25)*%
X161480820Y-48740360D03*
%TO.P,N3,6,6*%
%TO.N,Net-(U2-HV26)*%
X158519180Y-48740360D03*
%TO.P,N3,7,7*%
%TO.N,Net-(U2-HV27)*%
X155895360Y-50117040D03*
%TO.P,N3,8,8*%
%TO.N,Net-(U2-HV28)*%
X154213880Y-52555440D03*
%TO.P,N3,9,9*%
%TO.N,Net-(U2-HV29)*%
X153855740Y-55494220D03*
%TO.P,N3,A,A*%
%TO.N,Net-(N3-PadA)*%
X160000000Y-60937440D03*
%TO.P,N3,LHDP,LHDP*%
%TO.N,unconnected-(N3-PadLHDP)*%
X162875280Y-60228780D03*
%TO.P,N3,RHDP,RHDP*%
%TO.N,unconnected-(N3-PadRHDP)*%
X157124720Y-60228780D03*
%TD*%
%TO.P,N1,0,0*%
%TO.N,Net-(U2-HV10)*%
X104907300Y-58265360D03*
%TO.P,N1,1,1*%
%TO.N,Net-(U2-HV1)*%
X115092700Y-58265360D03*
%TO.P,N1,2,2*%
%TO.N,Net-(U2-HV2)*%
X116144260Y-55494220D03*
%TO.P,N1,3,3*%
%TO.N,Net-(U2-HV3)*%
X115786120Y-52555440D03*
%TO.P,N1,4,4*%
%TO.N,Net-(U2-HV4)*%
X114104640Y-50117040D03*
%TO.P,N1,5,5*%
%TO.N,Net-(U2-HV5)*%
X111480820Y-48740360D03*
%TO.P,N1,6,6*%
%TO.N,Net-(U2-HV6)*%
X108519180Y-48740360D03*
%TO.P,N1,7,7*%
%TO.N,Net-(U2-HV7)*%
X105895360Y-50117040D03*
%TO.P,N1,8,8*%
%TO.N,Net-(U2-HV8)*%
X104213880Y-52555440D03*
%TO.P,N1,9,9*%
%TO.N,Net-(U2-HV9)*%
X103855740Y-55494220D03*
%TO.P,N1,A,A*%
%TO.N,Net-(N1-PadA)*%
X110000000Y-60937440D03*
%TO.P,N1,LHDP,LHDP*%
%TO.N,unconnected-(N1-PadLHDP)*%
X112875280Y-60228780D03*
%TO.P,N1,RHDP,RHDP*%
%TO.N,unconnected-(N1-PadRHDP)*%
X107124720Y-60228780D03*
%TD*%
D11*
%TO.P,SW6,1,1*%
%TO.N,Net-(U1-PD7)*%
X95114998Y-32249751D03*
D12*
%TO.P,SW6,2,2*%
X95114998Y-25749750D03*
%TO.P,SW6,3,3*%
%TO.N,+5V*%
X99614999Y-32249751D03*
%TO.P,SW6,4,4*%
X99614999Y-25749750D03*
%TD*%
D10*
%TO.P,N2,0,0*%
%TO.N,Net-(U2-HV20)*%
X124907300Y-58125360D03*
%TO.P,N2,1,1*%
%TO.N,Net-(U2-HV11)*%
X135092700Y-58125360D03*
%TO.P,N2,2,2*%
%TO.N,Net-(U2-HV12)*%
X136144260Y-55354220D03*
%TO.P,N2,3,3*%
%TO.N,Net-(U2-HV13)*%
X135786120Y-52415440D03*
%TO.P,N2,4,4*%
%TO.N,Net-(U2-HV14)*%
X134104640Y-49977040D03*
%TO.P,N2,5,5*%
%TO.N,Net-(U2-HV15)*%
X131480820Y-48600360D03*
%TO.P,N2,6,6*%
%TO.N,Net-(U2-HV16)*%
X128519180Y-48600360D03*
%TO.P,N2,7,7*%
%TO.N,Net-(U2-HV17)*%
X125895360Y-49977040D03*
%TO.P,N2,8,8*%
%TO.N,Net-(U2-HV18)*%
X124213880Y-52415440D03*
%TO.P,N2,9,9*%
%TO.N,Net-(U2-HV19)*%
X123855740Y-55354220D03*
%TO.P,N2,A,A*%
%TO.N,Net-(N2-PadA)*%
X130000000Y-60797440D03*
%TO.P,N2,LHDP,LHDP*%
%TO.N,unconnected-(N2-PadLHDP)*%
X132875280Y-60088780D03*
%TO.P,N2,RHDP,RHDP*%
%TO.N,unconnected-(N2-PadRHDP)*%
X127124720Y-60088780D03*
%TD*%
D13*
%TO.P,N4,A,A*%
%TO.N,Net-(N4-PadA)*%
X143412500Y-54750000D03*
%TO.P,N4,K,K*%
%TO.N,Net-(U2-HV31)*%
X146587500Y-54750000D03*
%TD*%
D14*
%TO.P,U1,1,~{RESET}/PC6*%
%TO.N,Net-(J1-Pin_5)*%
X66500000Y-25800000D03*
D15*
%TO.P,U1,2,PD0*%
%TO.N,Net-(U1-PD0)*%
X66500000Y-28340000D03*
%TO.P,U1,3,PD1*%
%TO.N,Net-(U1-PD1)*%
X66500000Y-30880000D03*
%TO.P,U1,4,PD2*%
%TO.N,Net-(U1-PD2)*%
X66500000Y-33420000D03*
%TO.P,U1,5,PD3*%
%TO.N,Net-(U1-PD3)*%
X66500000Y-35960000D03*
%TO.P,U1,6,PD4*%
%TO.N,Net-(U1-PD4)*%
X66500000Y-38500000D03*
%TO.P,U1,7,VCC*%
%TO.N,+5V*%
X66500000Y-41040000D03*
%TO.P,U1,8,GND*%
X66500000Y-43580000D03*
%TO.P,U1,9,XTAL1/PB6*%
%TO.N,Net-(U1-XTAL1{slash}PB6)*%
X66500000Y-46120000D03*
%TO.P,U1,10,XTAL2/PB7*%
%TO.N,Net-(U1-XTAL2{slash}PB7)*%
X66500000Y-48660000D03*
%TO.P,U1,11,PD5*%
%TO.N,Net-(U1-PD5)*%
X66500000Y-51200000D03*
%TO.P,U1,12,PD6*%
%TO.N,Net-(U1-PD6)*%
X66500000Y-53740000D03*
%TO.P,U1,13,PD7*%
%TO.N,Net-(U1-PD7)*%
X66500000Y-56280000D03*
%TO.P,U1,14,PB0*%
%TO.N,Net-(U1-PB0)*%
X66500000Y-58820000D03*
%TO.P,U1,15,PB1*%
%TO.N,unconnected-(U1-PB1-Pad15)*%
X74120000Y-58820000D03*
%TO.P,U1,16,PB2*%
%TO.N,unconnected-(U1-PB2-Pad16)*%
X74120000Y-56280000D03*
%TO.P,U1,17,PB3*%
%TO.N,Net-(J1-Pin_4)*%
X74120000Y-53740000D03*
%TO.P,U1,18,PB4*%
%TO.N,Net-(J1-Pin_1)*%
X74120000Y-51200000D03*
%TO.P,U1,19,PB5*%
%TO.N,Net-(J1-Pin_3)*%
X74120000Y-48660000D03*
%TO.P,U1,20,AVCC*%
%TO.N,+5V*%
X74120000Y-46120000D03*
%TO.P,U1,21,AREF*%
%TO.N,unconnected-(U1-AREF-Pad21)*%
X74120000Y-43580000D03*
%TO.P,U1,22,GND*%
%TO.N,+5V*%
X74120000Y-41040000D03*
%TO.P,U1,23,PC0*%
%TO.N,unconnected-(U1-PC0-Pad23)*%
X74120000Y-38500000D03*
%TO.P,U1,24,PC1*%
%TO.N,unconnected-(U1-PC1-Pad24)*%
X74120000Y-35960000D03*
%TO.P,U1,25,PC2*%
%TO.N,unconnected-(U1-PC2-Pad25)*%
X74120000Y-33420000D03*
%TO.P,U1,26,PC3*%
%TO.N,unconnected-(U1-PC3-Pad26)*%
X74120000Y-30880000D03*
%TO.P,U1,27,PC4*%
%TO.N,Net-(U1-PC4)*%
X74120000Y-28340000D03*
%TO.P,U1,28,PC5*%
%TO.N,Net-(U1-PC5)*%
X74120000Y-25800000D03*
%TD*%
D10*
%TO.P,N6,0,0*%
%TO.N,Net-(U3-HV20)*%
X204907300Y-58265360D03*
%TO.P,N6,1,1*%
%TO.N,Net-(U3-HV11)*%
X215092700Y-58265360D03*
%TO.P,N6,2,2*%
%TO.N,Net-(U3-HV12)*%
X216144260Y-55494220D03*
%TO.P,N6,3,3*%
%TO.N,Net-(U3-HV13)*%
X215786120Y-52555440D03*
%TO.P,N6,4,4*%
%TO.N,Net-(U3-HV14)*%
X214104640Y-50117040D03*
%TO.P,N6,5,5*%
%TO.N,Net-(U3-HV15)*%
X211480820Y-48740360D03*
%TO.P,N6,6,6*%
%TO.N,Net-(U3-HV16)*%
X208519180Y-48740360D03*
%TO.P,N6,7,7*%
%TO.N,Net-(U3-HV17)*%
X205895360Y-50117040D03*
%TO.P,N6,8,8*%
%TO.N,Net-(U3-HV18)*%
X204213880Y-52555440D03*
%TO.P,N6,9,9*%
%TO.N,Net-(U3-HV19)*%
X203855740Y-55494220D03*
%TO.P,N6,A,A*%
%TO.N,Net-(N6-PadA)*%
X210000000Y-60937440D03*
%TO.P,N6,LHDP,LHDP*%
%TO.N,unconnected-(N6-PadLHDP)*%
X212875280Y-60228780D03*
%TO.P,N6,RHDP,RHDP*%
%TO.N,unconnected-(N6-PadRHDP)*%
X207124720Y-60228780D03*
%TD*%
%TO.P,N5,0,0*%
%TO.N,Net-(U3-HV10)*%
X174907300Y-58265360D03*
%TO.P,N5,1,1*%
%TO.N,Net-(U3-HV1)*%
X185092700Y-58265360D03*
%TO.P,N5,2,2*%
%TO.N,Net-(U3-HV2)*%
X186144260Y-55494220D03*
%TO.P,N5,3,3*%
%TO.N,Net-(U3-HV3)*%
X185786120Y-52555440D03*
%TO.P,N5,4,4*%
%TO.N,Net-(U3-HV4)*%
X184104640Y-50117040D03*
%TO.P,N5,5,5*%
%TO.N,Net-(U3-HV5)*%
X181480820Y-48740360D03*
%TO.P,N5,6,6*%
%TO.N,Net-(U3-HV6)*%
X178519180Y-48740360D03*
%TO.P,N5,7,7*%
%TO.N,Net-(U3-HV7)*%
X175895360Y-50117040D03*
%TO.P,N5,8,8*%
%TO.N,Net-(U3-HV8)*%
X174213880Y-52555440D03*
%TO.P,N5,9,9*%
%TO.N,Net-(U3-HV9)*%
X173855740Y-55494220D03*
%TO.P,N5,A,A*%
%TO.N,Net-(N5-PadA)*%
X180000000Y-60937440D03*
%TO.P,N5,LHDP,LHDP*%
%TO.N,unconnected-(N5-PadLHDP)*%
X182875280Y-60228780D03*
%TO.P,N5,RHDP,RHDP*%
%TO.N,unconnected-(N5-PadRHDP)*%
X177124720Y-60228780D03*
%TD*%
D11*
%TO.P,SW4,1,1*%
%TO.N,Net-(U1-PD5)*%
X77939000Y-32249751D03*
D12*
%TO.P,SW4,2,2*%
X77939000Y-25749750D03*
%TO.P,SW4,3,3*%
%TO.N,+5V*%
X82439001Y-32249751D03*
%TO.P,SW4,4,4*%
X82439001Y-25749750D03*
%TD*%
D11*
%TO.P,SW5,1,1*%
%TO.N,Net-(U1-PD6)*%
X86526999Y-32249751D03*
D12*
%TO.P,SW5,2,2*%
X86526999Y-25749750D03*
%TO.P,SW5,3,3*%
%TO.N,+5V*%
X91027000Y-32249751D03*
%TO.P,SW5,4,4*%
X91027000Y-25749750D03*
%TD*%
D13*
%TO.P,N8,A,A*%
%TO.N,Net-(N8-PadA)*%
X193412500Y-54750000D03*
%TO.P,N8,K,K*%
%TO.N,Net-(U3-HV31)*%
X196587500Y-54750000D03*
%TD*%
D16*
%TO.P,C2,1*%
%TO.N,Net-(U1-XTAL1{slash}PB6)*%
X61050000Y-45000000D03*
%TO.P,C2,2*%
%TO.N,+5V*%
X55950000Y-45000000D03*
%TD*%
D17*
%TO.P,U5,1,32KHz*%
%TO.N,+5V*%
X87262000Y-36195000D03*
%TO.P,U5,2,Vcc*%
X87262000Y-37465000D03*
%TO.P,U5,3,!(INT)/SQR*%
%TO.N,Net-(U1-PB0)*%
X87262000Y-38735000D03*
%TO.P,U5,4,!(Reset)*%
%TO.N,+5V*%
X87262000Y-40005000D03*
%TO.P,U5,5,NC*%
X87262000Y-41275000D03*
%TO.P,U5,6,NC*%
X87262000Y-42545000D03*
%TO.P,U5,7,NC*%
X87262000Y-43815000D03*
%TO.P,U5,8,NC*%
X87262000Y-45085000D03*
%TO.P,U5,9,NC*%
X77838000Y-45085000D03*
%TO.P,U5,10,NC*%
X77838000Y-43815000D03*
%TO.P,U5,11,NC*%
X77838000Y-42545000D03*
%TO.P,U5,12,NC*%
X77838000Y-41275000D03*
%TO.P,U5,13,GND*%
X77838000Y-40005000D03*
%TO.P,U5,14,Vbat*%
%TO.N,Net-(U5-Vbat)*%
X77838000Y-38735000D03*
%TO.P,U5,15,SDA*%
%TO.N,Net-(U1-PC4)*%
X77838000Y-37465000D03*
%TO.P,U5,16,SCL*%
%TO.N,Net-(U1-PC5)*%
X77838000Y-36195000D03*
%TD*%
D18*
%TO.P,C3,1*%
%TO.N,+5V*%
X55950000Y-53000000D03*
%TO.P,C3,2*%
%TO.N,Net-(U1-XTAL2{slash}PB7)*%
X61050000Y-53000000D03*
%TD*%
%TO.P,C4,1*%
%TO.N,+5V*%
X55950000Y-36000000D03*
%TO.P,C4,2*%
X61050000Y-36000000D03*
%TD*%
D19*
%TO.P,R1,1*%
%TO.N,+5V*%
X63680000Y-27000000D03*
%TO.P,R1,2*%
%TO.N,Net-(J1-Pin_5)*%
X64320000Y-27000000D03*
%TD*%
%TO.P,R3,1*%
%TO.N,+5V*%
X63680000Y-31000000D03*
%TO.P,R3,2*%
%TO.N,Net-(U1-PC5)*%
X64320000Y-31000000D03*
%TD*%
D18*
%TO.P,C5,1*%
%TO.N,+5V*%
X55950000Y-27000000D03*
%TO.P,C5,2*%
X61050000Y-27000000D03*
%TD*%
D20*
%TO.P,J2,1*%
%TO.N,+12V*%
X85725000Y-51785000D03*
D21*
%TO.P,J2,2*%
%TO.N,+5V*%
X85725000Y-57785000D03*
D22*
%TO.P,J2,3*%
X81025000Y-54785000D03*
%TD*%
D23*
%TO.P,J3,1,Pin_1*%
%TO.N,+12V*%
X95990000Y-54610000D03*
%TD*%
D24*
%TO.P,U6,1,OUT*%
%TO.N,+5V*%
X98851000Y-59460000D03*
D25*
%TO.P,U6,2,GND*%
X98763500Y-60960000D03*
D24*
%TO.P,U6,3,IN*%
%TO.N,+12V*%
X98851000Y-62460000D03*
%TD*%
D18*
%TO.P,C1,1*%
%TO.N,+5V*%
X55950000Y-61500000D03*
%TO.P,C1,2*%
X61050000Y-61500000D03*
%TD*%
D26*
%TO.P,U4,1,OUT*%
%TO.N,+5V*%
X90870000Y-50165000D03*
%TO.P,U4,2,GND*%
X90870000Y-48895000D03*
%TO.P,U4,3,GND*%
X90870000Y-47625000D03*
%TO.P,U4,4,NC*%
%TO.N,unconnected-(U4-NC-Pad4)*%
X90870000Y-46355000D03*
%TO.P,U4,5,NC*%
%TO.N,unconnected-(U4-NC-Pad5)*%
X95820000Y-46355000D03*
%TO.P,U4,6,GND*%
%TO.N,+5V*%
X95820000Y-47625000D03*
%TO.P,U4,7,GND*%
X95820000Y-48895000D03*
%TO.P,U4,8,IN*%
%TO.N,+12V*%
X95820000Y-50165000D03*
%TD*%
D19*
%TO.P,R2,1*%
%TO.N,+5V*%
X63680000Y-36000000D03*
%TO.P,R2,2*%
%TO.N,Net-(U1-PC4)*%
X64320000Y-36000000D03*
%TD*%
D23*
%TO.P,J1,1,Pin_1*%
%TO.N,Net-(J1-Pin_1)*%
X78000000Y-51000000D03*
%TD*%
D27*
%TO.N,Net-(U5-Vbat)*%
X75565000Y-38735000D03*
%TO.N,+5V*%
X201930000Y-32385000D03*
X91674000Y-39243000D03*
X141500000Y-39000000D03*
X145415000Y-42545000D03*
X63590000Y-27017958D03*
X203835000Y-38603000D03*
X203400000Y-41500000D03*
X140970000Y-42545000D03*
X146685000Y-23495000D03*
X145415000Y-24130000D03*
%TO.N,Net-(U1-XTAL2{slash}PB7)*%
X63500000Y-50418001D03*
%TO.N,Net-(U2-HV13)*%
X131800000Y-28500000D03*
%TO.N,Net-(U2-HV15)*%
X133400000Y-28500000D03*
%TO.N,Net-(U2-HV18)*%
X135255000Y-30480000D03*
X128305000Y-41453527D03*
%TO.N,Net-(U2-HV12)*%
X131000000Y-28500000D03*
%TO.N,Net-(U2-HV14)*%
X132600000Y-28500000D03*
%TO.N,Net-(U2-HV11)*%
X126365000Y-31115000D03*
X125730000Y-41275000D03*
X122448235Y-45613235D03*
%TO.N,Net-(U3-HV17)*%
X205000000Y-28500000D03*
%TO.N,Net-(U3-HV20)*%
X207400000Y-28500000D03*
%TO.N,Net-(U3-HV14)*%
X202600000Y-28500000D03*
%TO.N,Net-(U3-HV19)*%
X206600000Y-28500000D03*
%TO.N,Net-(U3-HV18)*%
X205800000Y-28500000D03*
%TO.N,Net-(U3-HV15)*%
X203400000Y-28500000D03*
%TO.N,Net-(U3-HV16)*%
X204200000Y-28500000D03*
%TO.N,Net-(U3-HV31)*%
X203835000Y-37465000D03*
%TO.N,Net-(U1-PC5)*%
X67807210Y-32247210D03*
X71393975Y-35560000D03*
%TO.N,Net-(U1-PD6)*%
X79206760Y-46821760D03*
%TO.N,Net-(U1-PD7)*%
X92710000Y-34290000D03*
X79806760Y-45720000D03*
%TO.N,Net-(U1-PD4)*%
X204200000Y-41500000D03*
X130810000Y-31750000D03*
X179588542Y-43063542D03*
X128867548Y-29882452D03*
X201295000Y-50165000D03*
X195987500Y-50165000D03*
%TO.N,Net-(U1-PB0)*%
X87262000Y-38735000D03*
%TO.N,Net-(U1-PD0)*%
X138200000Y-41500000D03*
%TO.N,Net-(U1-PD2)*%
X146685000Y-24765000D03*
X125623235Y-24871765D03*
X199390000Y-40005000D03*
X132715000Y-31750000D03*
X76400265Y-29771735D03*
X119888000Y-29083000D03*
%TO.N,Net-(U1-PD3)*%
X107950000Y-44450000D03*
X84455000Y-43815000D03*
X139000000Y-41500000D03*
X195580000Y-48895000D03*
X71393975Y-38735000D03*
%TO.N,Net-(U1-PD1)*%
X204799000Y-42850748D03*
X203835000Y-44450000D03*
X180264271Y-42387813D03*
X125730000Y-26035000D03*
X197454765Y-45054765D03*
X195549765Y-46959765D03*
X132080000Y-32385000D03*
X129433235Y-29316765D03*
X201295000Y-44450000D03*
%TO.N,Net-(U2-DATAOUT)*%
X132080000Y-50165000D03*
X145415000Y-46990000D03*
X134620000Y-53975000D03*
X199283235Y-41168235D03*
%TD*%
D28*
%TO.N,Net-(U5-Vbat)*%
X75565000Y-38735000D02*
X77838000Y-38735000D01*
%TO.N,+5V*%
X200025000Y-23495000D02*
X146685000Y-23495000D01*
X87881500Y-40005000D02*
X88900000Y-38986500D01*
X81025000Y-54785000D02*
X82550000Y-53260000D01*
X82439001Y-25749750D02*
X83489301Y-24699450D01*
X82550000Y-45085000D02*
X77838000Y-45085000D01*
X66500000Y-41040000D02*
X74120000Y-41040000D01*
X77838000Y-43815000D02*
X77838000Y-42545000D01*
X99568000Y-49149000D02*
X99314000Y-48895000D01*
X89976700Y-24699450D02*
X91027000Y-25749750D01*
X88265000Y-37465000D02*
X87262000Y-37465000D01*
X63680000Y-36000000D02*
X63680000Y-38220000D01*
X91027000Y-32249751D02*
X87262000Y-36014751D01*
X95820000Y-48895000D02*
X95820000Y-47625000D01*
X77838000Y-45085000D02*
X77838000Y-43815000D01*
X82550000Y-53260000D02*
X82550000Y-45085000D01*
X55950000Y-27000000D02*
X55950000Y-36000000D01*
X203835000Y-38603000D02*
X203400000Y-39038000D01*
X84025000Y-57785000D02*
X81025000Y-54785000D01*
X88900000Y-38100000D02*
X88265000Y-37465000D01*
X88900000Y-38986500D02*
X91417500Y-38986500D01*
X73019000Y-45019000D02*
X73019000Y-42141000D01*
X83489301Y-24699450D02*
X89976700Y-24699450D01*
X87262000Y-42545000D02*
X87262000Y-41275000D01*
X87262000Y-43815000D02*
X87262000Y-42545000D01*
X87262000Y-40005000D02*
X87881500Y-40005000D01*
X140970000Y-42545000D02*
X140970000Y-39530000D01*
X99568000Y-58743000D02*
X99568000Y-49149000D01*
X90870000Y-47625000D02*
X95820000Y-47625000D01*
X77838000Y-40005000D02*
X77838000Y-41275000D01*
X55950000Y-61500000D02*
X55950000Y-53000000D01*
X87262000Y-45085000D02*
X89802000Y-47625000D01*
X88900000Y-38986500D02*
X88900000Y-38100000D01*
X77838000Y-40005000D02*
X75155000Y-40005000D01*
X63680000Y-29630000D02*
X61050000Y-27000000D01*
X87262000Y-45085000D02*
X87262000Y-43815000D01*
X91417500Y-38986500D02*
X91674000Y-39243000D01*
X74120000Y-46120000D02*
X73019000Y-45019000D01*
X61050000Y-61500000D02*
X55950000Y-61500000D01*
X55950000Y-36000000D02*
X61050000Y-36000000D01*
X63680000Y-36000000D02*
X61050000Y-36000000D01*
X99314000Y-48895000D02*
X95820000Y-48895000D01*
X75155000Y-40005000D02*
X74120000Y-41040000D01*
X98763500Y-60960000D02*
X98763500Y-59547500D01*
X87262000Y-37465000D02*
X87262000Y-36195000D01*
X73019000Y-42141000D02*
X74120000Y-41040000D01*
X87262000Y-40005000D02*
X87262000Y-41275000D01*
X89802000Y-47625000D02*
X90870000Y-47625000D01*
X61050000Y-27000000D02*
X63680000Y-27000000D01*
X63680000Y-31000000D02*
X63680000Y-29630000D01*
X90870000Y-48895000D02*
X90870000Y-50165000D01*
X55950000Y-53000000D02*
X55950000Y-45000000D01*
X98851000Y-59460000D02*
X99568000Y-58743000D01*
X203400000Y-39038000D02*
X203400000Y-41500000D01*
X66500000Y-41040000D02*
X66500000Y-43580000D01*
X85725000Y-57785000D02*
X84025000Y-57785000D01*
X55950000Y-45000000D02*
X55950000Y-36000000D01*
X98763500Y-59547500D02*
X98851000Y-59460000D01*
X63680000Y-38220000D02*
X66500000Y-41040000D01*
X87262000Y-45085000D02*
X82550000Y-45085000D01*
X77838000Y-42545000D02*
X77838000Y-41275000D01*
X90870000Y-47625000D02*
X90870000Y-48895000D01*
X87262000Y-36014751D02*
X87262000Y-36195000D01*
X61050000Y-27000000D02*
X61050000Y-36000000D01*
X145415000Y-42545000D02*
X145415000Y-24130000D01*
X140970000Y-39530000D02*
X141500000Y-39000000D01*
X201930000Y-32385000D02*
X200025000Y-30480000D01*
X200025000Y-30480000D02*
X200025000Y-23495000D01*
%TO.N,Net-(U1-XTAL1{slash}PB6)*%
X61050000Y-45000000D02*
X62170000Y-46120000D01*
X62170000Y-46120000D02*
X66500000Y-46120000D01*
%TO.N,Net-(U1-XTAL2{slash}PB7)*%
X65405000Y-52070000D02*
X65399000Y-52064000D01*
X64475000Y-53000000D02*
X65405000Y-52070000D01*
X63500000Y-53000000D02*
X63500000Y-50418001D01*
X65399000Y-49761000D02*
X66500000Y-48660000D01*
X63500000Y-53000000D02*
X64475000Y-53000000D01*
X65399000Y-52064000D02*
X65399000Y-49761000D01*
X61050000Y-53000000D02*
X63500000Y-53000000D01*
%TO.N,Net-(J1-Pin_1)*%
X77800000Y-51200000D02*
X78000000Y-51000000D01*
X74120000Y-51200000D02*
X77800000Y-51200000D01*
%TO.N,+12V*%
X85725000Y-51785000D02*
X94200000Y-51785000D01*
X94200000Y-51785000D02*
X95820000Y-50165000D01*
X94595000Y-61953252D02*
X94595000Y-56005000D01*
X95101748Y-62460000D02*
X94595000Y-61953252D01*
X95820000Y-50165000D02*
X95990000Y-50335000D01*
X94595000Y-56005000D02*
X95990000Y-54610000D01*
X98851000Y-62460000D02*
X95101748Y-62460000D01*
X95990000Y-50335000D02*
X95990000Y-54610000D01*
%TO.N,Net-(U2-HV13)*%
X144780000Y-45720000D02*
X144780000Y-24765000D01*
X144780000Y-24765000D02*
X132715000Y-24765000D01*
X131800000Y-25680000D02*
X131800000Y-28500000D01*
X132715000Y-24765000D02*
X131800000Y-25680000D01*
X135786120Y-52415440D02*
X138084560Y-52415440D01*
X138084560Y-52415440D02*
X144780000Y-45720000D01*
%TO.N,Net-(U2-HV15)*%
X138089640Y-48600360D02*
X142875000Y-43815000D01*
X133985000Y-26670000D02*
X133985000Y-27915000D01*
X142875000Y-43815000D02*
X142875000Y-27305000D01*
X142240000Y-26670000D02*
X133985000Y-26670000D01*
X142875000Y-27305000D02*
X142240000Y-26670000D01*
X131480820Y-48600360D02*
X138089640Y-48600360D01*
X133985000Y-27915000D02*
X133400000Y-28500000D01*
%TO.N,Net-(U2-HV18)*%
X128305000Y-41453527D02*
X128305000Y-37430000D01*
X128305000Y-37430000D02*
X135255000Y-30480000D01*
%TO.N,Net-(U2-HV12)*%
X132080000Y-23495000D02*
X130810000Y-24765000D01*
X130810000Y-28310000D02*
X131000000Y-28500000D01*
X146050000Y-45448480D02*
X146050000Y-23495000D01*
X130810000Y-24765000D02*
X130810000Y-28310000D01*
X136144260Y-55354220D02*
X146050000Y-45448480D01*
X146050000Y-23495000D02*
X132080000Y-23495000D01*
%TO.N,Net-(U2-HV14)*%
X133350000Y-26035000D02*
X132715000Y-26670000D01*
X138617960Y-49977040D02*
X143510000Y-45085000D01*
X134104640Y-49977040D02*
X138617960Y-49977040D01*
X143510000Y-45085000D02*
X143510000Y-26670000D01*
X132715000Y-26670000D02*
X132715000Y-28385000D01*
X143510000Y-26670000D02*
X142875000Y-26035000D01*
X142875000Y-26035000D02*
X133350000Y-26035000D01*
X132715000Y-28385000D02*
X132600000Y-28500000D01*
%TO.N,Net-(U2-HV11)*%
X125730000Y-31750000D02*
X126365000Y-31115000D01*
X122909141Y-45613235D02*
X122448235Y-45613235D01*
X135092700Y-57796794D02*
X122909141Y-45613235D01*
X135092700Y-58125360D02*
X135092700Y-57796794D01*
X125730000Y-41275000D02*
X125730000Y-31750000D01*
%TO.N,Net-(U3-HV17)*%
X205105000Y-28605000D02*
X205000000Y-28500000D01*
X204617366Y-53529540D02*
X203810394Y-53529540D01*
X205000000Y-30081000D02*
X205000000Y-28500000D01*
X203200000Y-52919146D02*
X203200000Y-50165000D01*
X205895360Y-52251546D02*
X204617366Y-53529540D01*
X205895360Y-50117040D02*
X205895360Y-52251546D01*
X205399000Y-47966000D02*
X205399000Y-30480000D01*
X205399000Y-30480000D02*
X205000000Y-30081000D01*
X203200000Y-50165000D02*
X205399000Y-47966000D01*
X203810394Y-53529540D02*
X203200000Y-52919146D01*
%TO.N,Net-(U3-HV20)*%
X207400000Y-55772660D02*
X207400000Y-28500000D01*
X204907300Y-58265360D02*
X207400000Y-55772660D01*
%TO.N,Net-(U3-HV14)*%
X213995000Y-26035000D02*
X202565000Y-26035000D01*
X214104640Y-26144640D02*
X213995000Y-26035000D01*
X214104640Y-50117040D02*
X214104640Y-26144640D01*
X202565000Y-26035000D02*
X202565000Y-28465000D01*
X202565000Y-28465000D02*
X202600000Y-28500000D01*
%TO.N,Net-(U3-HV19)*%
X206999000Y-52350960D02*
X206999000Y-30480000D01*
X206999000Y-30480000D02*
X206600000Y-30081000D01*
X203855740Y-55494220D02*
X206999000Y-52350960D01*
X206600000Y-30081000D02*
X206600000Y-28500000D01*
%TO.N,Net-(U3-HV18)*%
X204213880Y-50421120D02*
X206375000Y-48260000D01*
X205800000Y-47685000D02*
X205800000Y-28500000D01*
X204213880Y-52555440D02*
X204213880Y-50421120D01*
X206375000Y-48260000D02*
X205800000Y-47685000D01*
%TO.N,Net-(U3-HV15)*%
X211480820Y-27330820D02*
X211455000Y-27305000D01*
X211480820Y-48740360D02*
X211480820Y-27330820D01*
X211455000Y-27305000D02*
X203200000Y-27305000D01*
X203200000Y-27305000D02*
X203200000Y-28300000D01*
X203200000Y-28300000D02*
X203400000Y-28500000D01*
%TO.N,Net-(U3-HV16)*%
X208519180Y-48740360D02*
X208519180Y-28769237D01*
X204200000Y-28210000D02*
X204200000Y-28500000D01*
X208519180Y-28769237D02*
X207648943Y-27899000D01*
X204511000Y-27899000D02*
X204200000Y-28210000D01*
X207648943Y-27899000D02*
X204511000Y-27899000D01*
%TO.N,Net-(U3-HV31)*%
X196587500Y-44712500D02*
X203835000Y-37465000D01*
X196587500Y-54750000D02*
X196587500Y-44712500D01*
%TO.N,Net-(J1-Pin_5)*%
X64320000Y-27000000D02*
X65300000Y-27000000D01*
X65300000Y-27000000D02*
X66500000Y-25800000D01*
%TO.N,Net-(U1-PC4)*%
X79101500Y-36839000D02*
X78475500Y-37465000D01*
X78475500Y-37465000D02*
X77838000Y-37465000D01*
X79101500Y-35569000D02*
X79101500Y-36839000D01*
X74120000Y-28340000D02*
X76835000Y-31055000D01*
X65461000Y-34859000D02*
X67601000Y-34859000D01*
X76835000Y-35560000D02*
X79092500Y-35560000D01*
X76835000Y-31055000D02*
X76835000Y-35560000D01*
X64320000Y-36000000D02*
X65461000Y-34859000D01*
X67601000Y-34859000D02*
X74120000Y-28340000D01*
X79092500Y-35560000D02*
X79101500Y-35569000D01*
%TO.N,Net-(U1-PC5)*%
X65541000Y-29779000D02*
X70141000Y-29779000D01*
X65567210Y-32247210D02*
X67807210Y-32247210D01*
X64320000Y-31000000D02*
X65567210Y-32247210D01*
X72894975Y-37061000D02*
X76334500Y-37061000D01*
X64320000Y-31000000D02*
X65541000Y-29779000D01*
X70141000Y-29779000D02*
X74120000Y-25800000D01*
X71393975Y-35560000D02*
X72894975Y-37061000D01*
X77200500Y-36195000D02*
X77838000Y-36195000D01*
X76334500Y-37061000D02*
X77200500Y-36195000D01*
%TO.N,Net-(U1-PD5)*%
X77939000Y-25749750D02*
X77939000Y-32249751D01*
%TO.N,Net-(U1-PD6)*%
X75929520Y-50099000D02*
X79206760Y-46821760D01*
X70141000Y-50099000D02*
X75929520Y-50099000D01*
X66500000Y-53740000D02*
X70141000Y-50099000D01*
X86526999Y-25749750D02*
X86526999Y-32249751D01*
%TO.N,Net-(U1-PD7)*%
X78151000Y-52301000D02*
X70479000Y-52301000D01*
X95114998Y-32249751D02*
X94750249Y-32249751D01*
X70479000Y-52301000D02*
X66500000Y-56280000D01*
X79806760Y-50645240D02*
X78151000Y-52301000D01*
X94750249Y-32249751D02*
X92710000Y-34290000D01*
X95114998Y-25749750D02*
X95114998Y-32249751D01*
X79806760Y-45720000D02*
X79806760Y-50645240D01*
%TO.N,Net-(U1-PD4)*%
X196181000Y-48646057D02*
X196181000Y-49971500D01*
X130810000Y-31750000D02*
X128942452Y-29882452D01*
X190598485Y-43063542D02*
X196181000Y-48646057D01*
X128942452Y-29882452D02*
X128867548Y-29882452D01*
X202565000Y-45625000D02*
X202565000Y-43815000D01*
X201295000Y-50165000D02*
X204200000Y-47260000D01*
X202565000Y-43815000D02*
X204200000Y-42180000D01*
X179588542Y-43063542D02*
X190598485Y-43063542D01*
X196181000Y-49971500D02*
X195987500Y-50165000D01*
X204200000Y-42180000D02*
X204200000Y-41500000D01*
X204200000Y-47260000D02*
X202565000Y-45625000D01*
%TO.N,Net-(U1-PD0)*%
X124701000Y-23101000D02*
X131479000Y-29879000D01*
X71739000Y-23101000D02*
X124701000Y-23101000D01*
X135503943Y-29879000D02*
X138200000Y-32575057D01*
X138200000Y-32575057D02*
X138200000Y-41500000D01*
X131479000Y-29879000D02*
X135503943Y-29879000D01*
X66500000Y-28340000D02*
X71739000Y-23101000D01*
%TO.N,Net-(U1-PD2)*%
X161925000Y-40005000D02*
X146685000Y-24765000D01*
X120723000Y-28248000D02*
X120723000Y-27239000D01*
X73663950Y-27239000D02*
X74576050Y-27239000D01*
X132715000Y-31750000D02*
X124467000Y-23502000D01*
X124460000Y-23502000D02*
X120723000Y-27239000D01*
X124467000Y-23502000D02*
X124460000Y-23502000D01*
X74576050Y-27239000D02*
X76400265Y-29063215D01*
X73663950Y-27239000D02*
X67482950Y-33420000D01*
X119888000Y-29083000D02*
X120723000Y-28248000D01*
X67482950Y-33420000D02*
X66500000Y-33420000D01*
X76400265Y-29063215D02*
X76400265Y-29771735D01*
X199390000Y-40005000D02*
X161925000Y-40005000D01*
%TO.N,Net-(U1-PD3)*%
X107950000Y-44450000D02*
X139000000Y-44450000D01*
X76574500Y-39379000D02*
X80019000Y-39379000D01*
X72262975Y-39604000D02*
X76349500Y-39604000D01*
X194451260Y-47766260D02*
X145109806Y-47766260D01*
X145109806Y-47766260D02*
X136547746Y-56328320D01*
X195580000Y-48895000D02*
X194451260Y-47766260D01*
X139000000Y-46420000D02*
X139000000Y-44450000D01*
X131078594Y-47625000D02*
X137795000Y-47625000D01*
X130506720Y-48196874D02*
X131078594Y-47625000D01*
X130506720Y-51094266D02*
X130506720Y-48196874D01*
X137795000Y-47625000D02*
X139000000Y-46420000D01*
X135740774Y-56328320D02*
X130506720Y-51094266D01*
X80019000Y-39379000D02*
X84455000Y-43815000D01*
X71393975Y-38735000D02*
X72262975Y-39604000D01*
X76349500Y-39604000D02*
X76574500Y-39379000D01*
X136547746Y-56328320D02*
X135740774Y-56328320D01*
X139000000Y-44450000D02*
X139000000Y-41500000D01*
%TO.N,Net-(U1-PD1)*%
X203835000Y-43815000D02*
X204799000Y-42851000D01*
X200690235Y-45054765D02*
X201295000Y-44450000D01*
X129433235Y-29316765D02*
X126151470Y-26035000D01*
X203835000Y-44450000D02*
X203835000Y-43815000D01*
X132080000Y-31963530D02*
X132080000Y-32385000D01*
X197454765Y-45054765D02*
X200690235Y-45054765D01*
X126151470Y-26035000D02*
X125730000Y-26035000D01*
X129433235Y-29316765D02*
X132080000Y-31963530D01*
X190977813Y-42387813D02*
X195549765Y-46959765D01*
X204799000Y-42851000D02*
X204799000Y-42850748D01*
X180264271Y-42387813D02*
X190977813Y-42387813D01*
%TO.N,Net-(U2-DATAOUT)*%
X151236765Y-41168235D02*
X145415000Y-46990000D01*
X134620000Y-53975000D02*
X132080000Y-51435000D01*
X199283235Y-41168235D02*
X151236765Y-41168235D01*
X132080000Y-51435000D02*
X132080000Y-50165000D01*
%TD*%
M02*
