%TF.GenerationSoftware,KiCad,Pcbnew,9.0.4*%
%TF.CreationDate,2025-11-16T22:43:41-07:00*%
%TF.ProjectId,Nixie Clock ECE5930,4e697869-6520-4436-9c6f-636b20454345,rev?*%
%TF.SameCoordinates,Original*%
%TF.FileFunction,Plated,1,2,PTH,Mixed*%
%TF.FilePolarity,Positive*%
%FSLAX46Y46*%
G04 Gerber Fmt 4.6, Leading zero omitted, Abs format (unit mm)*
G04 Created by KiCad (PCBNEW 9.0.4) date 2025-11-16 22:43:41*
%MOMM*%
%LPD*%
G01*
G04 APERTURE LIST*
%TA.AperFunction,ViaDrill*%
%ADD10C,0.300000*%
%TD*%
%TA.AperFunction,ComponentDrill*%
%ADD11C,0.500000*%
%TD*%
%TA.AperFunction,ComponentDrill*%
%ADD12C,0.599440*%
%TD*%
%TA.AperFunction,ComponentDrill*%
%ADD13C,0.800000*%
%TD*%
%TA.AperFunction,ComponentDrill*%
%ADD14C,0.838200*%
%TD*%
%TA.AperFunction,ComponentDrill*%
%ADD15C,0.990600*%
%TD*%
G04 aperture for slot hole*
%TA.AperFunction,ComponentDrill*%
%ADD16C,1.000000*%
%TD*%
G04 APERTURE END LIST*
D10*
X63500000Y-50418001D03*
X63590000Y-27017958D03*
X67807210Y-32247210D03*
X71393975Y-35560000D03*
X71393975Y-38735000D03*
X75565000Y-38735000D03*
X76400265Y-29771735D03*
X79206760Y-46821760D03*
X79806760Y-45720000D03*
X84455000Y-43815000D03*
X87262000Y-38735000D03*
X91674000Y-39243000D03*
X92710000Y-34290000D03*
X107950000Y-44450000D03*
X119888000Y-29083000D03*
X122448235Y-45613235D03*
X125623235Y-24871765D03*
X125730000Y-26035000D03*
X125730000Y-41275000D03*
X126365000Y-31115000D03*
X128305000Y-41453527D03*
X128867548Y-29882452D03*
X129433235Y-29316765D03*
X130810000Y-31750000D03*
X131000000Y-28500000D03*
X131800000Y-28500000D03*
X132080000Y-32385000D03*
X132080000Y-50165000D03*
X132600000Y-28500000D03*
X132715000Y-31750000D03*
X133400000Y-28500000D03*
X134620000Y-53975000D03*
X135255000Y-30480000D03*
X138200000Y-41500000D03*
X139000000Y-41500000D03*
X140970000Y-42545000D03*
X141500000Y-39000000D03*
X145415000Y-24130000D03*
X145415000Y-42545000D03*
X145415000Y-46990000D03*
X146685000Y-23495000D03*
X146685000Y-24765000D03*
X179588542Y-43063542D03*
X180264271Y-42387813D03*
X195549765Y-46959765D03*
X195580000Y-48895000D03*
X195987500Y-50165000D03*
X197454765Y-45054765D03*
X199283235Y-41168235D03*
X199390000Y-40005000D03*
X201295000Y-44450000D03*
X201295000Y-50165000D03*
X201930000Y-32385000D03*
X202600000Y-28500000D03*
X203400000Y-28500000D03*
X203400000Y-41500000D03*
X203835000Y-37465000D03*
X203835000Y-38603000D03*
X203835000Y-44450000D03*
X204200000Y-28500000D03*
X204200000Y-41500000D03*
X204799000Y-42850748D03*
X205000000Y-28500000D03*
X205800000Y-28500000D03*
X206600000Y-28500000D03*
X207400000Y-28500000D03*
D11*
%TO.C,J1*%
X78000000Y-51000000D03*
%TO.C,J3*%
X95990000Y-54610000D03*
D12*
%TO.C,N4*%
X143412500Y-54750000D03*
X146587500Y-54750000D03*
%TO.C,N8*%
X193412500Y-54750000D03*
X196587500Y-54750000D03*
D13*
%TO.C,U1*%
X66500000Y-25800000D03*
X66500000Y-28340000D03*
X66500000Y-30880000D03*
X66500000Y-33420000D03*
X66500000Y-35960000D03*
X66500000Y-38500000D03*
X66500000Y-41040000D03*
X66500000Y-43580000D03*
X66500000Y-46120000D03*
X66500000Y-48660000D03*
X66500000Y-51200000D03*
X66500000Y-53740000D03*
X66500000Y-56280000D03*
X66500000Y-58820000D03*
X74120000Y-25800000D03*
X74120000Y-28340000D03*
X74120000Y-30880000D03*
X74120000Y-33420000D03*
X74120000Y-35960000D03*
X74120000Y-38500000D03*
X74120000Y-41040000D03*
X74120000Y-43580000D03*
X74120000Y-46120000D03*
X74120000Y-48660000D03*
X74120000Y-51200000D03*
X74120000Y-53740000D03*
X74120000Y-56280000D03*
X74120000Y-58820000D03*
D14*
%TO.C,N1*%
X103855740Y-55494220D03*
X104213880Y-52555440D03*
X104907300Y-58265360D03*
X105895360Y-50117040D03*
X107124720Y-60228780D03*
X108519180Y-48740360D03*
X110000000Y-60937440D03*
X111480820Y-48740360D03*
X112875280Y-60228780D03*
X114104640Y-50117040D03*
X115092700Y-58265360D03*
X115786120Y-52555440D03*
X116144260Y-55494220D03*
%TO.C,N2*%
X123855740Y-55354220D03*
X124213880Y-52415440D03*
X124907300Y-58125360D03*
X125895360Y-49977040D03*
X127124720Y-60088780D03*
X128519180Y-48600360D03*
X130000000Y-60797440D03*
X131480820Y-48600360D03*
X132875280Y-60088780D03*
X134104640Y-49977040D03*
X135092700Y-58125360D03*
X135786120Y-52415440D03*
X136144260Y-55354220D03*
%TO.C,N3*%
X153855740Y-55494220D03*
X154213880Y-52555440D03*
X154907300Y-58265360D03*
X155895360Y-50117040D03*
X157124720Y-60228780D03*
X158519180Y-48740360D03*
X160000000Y-60937440D03*
X161480820Y-48740360D03*
X162875280Y-60228780D03*
X164104640Y-50117040D03*
X165092700Y-58265360D03*
X165786120Y-52555440D03*
X166144260Y-55494220D03*
%TO.C,N5*%
X173855740Y-55494220D03*
X174213880Y-52555440D03*
X174907300Y-58265360D03*
X175895360Y-50117040D03*
X177124720Y-60228780D03*
X178519180Y-48740360D03*
X180000000Y-60937440D03*
X181480820Y-48740360D03*
X182875280Y-60228780D03*
X184104640Y-50117040D03*
X185092700Y-58265360D03*
X185786120Y-52555440D03*
X186144260Y-55494220D03*
%TO.C,N6*%
X203855740Y-55494220D03*
X204213880Y-52555440D03*
X204907300Y-58265360D03*
X205895360Y-50117040D03*
X207124720Y-60228780D03*
X208519180Y-48740360D03*
X210000000Y-60937440D03*
X211480820Y-48740360D03*
X212875280Y-60228780D03*
X214104640Y-50117040D03*
X215092700Y-58265360D03*
X215786120Y-52555440D03*
X216144260Y-55494220D03*
%TO.C,N7*%
X223855740Y-55494220D03*
X224213880Y-52555440D03*
X224907300Y-58265360D03*
X225895360Y-50117040D03*
X227124720Y-60228780D03*
X228519180Y-48740360D03*
X230000000Y-60937440D03*
X231480820Y-48740360D03*
X232875280Y-60228780D03*
X234104640Y-50117040D03*
X235092700Y-58265360D03*
X235786120Y-52555440D03*
X236144260Y-55494220D03*
D15*
%TO.C,SW4*%
X77939000Y-25749750D03*
X77939000Y-32249751D03*
X82439001Y-25749750D03*
X82439001Y-32249751D03*
%TO.C,SW5*%
X86526999Y-25749750D03*
X86526999Y-32249751D03*
X91027000Y-25749750D03*
X91027000Y-32249751D03*
%TO.C,SW6*%
X95114998Y-25749750D03*
X95114998Y-32249751D03*
X99614999Y-25749750D03*
X99614999Y-32249751D03*
D16*
%TO.C,J2*%
X81025000Y-55785000D02*
X81025000Y-53785000D01*
X84475000Y-51785000D02*
X86975000Y-51785000D01*
X84725000Y-57785000D02*
X86725000Y-57785000D01*
M02*
