%TF.GenerationSoftware,KiCad,Pcbnew,9.0.4*%
%TF.CreationDate,2025-11-16T22:43:31-07:00*%
%TF.ProjectId,Nixie Clock ECE5930,4e697869-6520-4436-9c6f-636b20454345,rev?*%
%TF.SameCoordinates,Original*%
%TF.FileFunction,Paste,Top*%
%TF.FilePolarity,Positive*%
%FSLAX46Y46*%
G04 Gerber Fmt 4.6, Leading zero omitted, Abs format (unit mm)*
G04 Created by KiCad (PCBNEW 9.0.4) date 2025-11-16 22:43:31*
%MOMM*%
%LPD*%
G01*
G04 APERTURE LIST*
G04 Aperture macros list*
%AMRoundRect*
0 Rectangle with rounded corners*
0 $1 Rounding radius*
0 $2 $3 $4 $5 $6 $7 $8 $9 X,Y pos of 4 corners*
0 Add a 4 corners polygon primitive as box body*
4,1,4,$2,$3,$4,$5,$6,$7,$8,$9,$2,$3,0*
0 Add four circle primitives for the rounded corners*
1,1,$1+$1,$2,$3*
1,1,$1+$1,$4,$5*
1,1,$1+$1,$6,$7*
1,1,$1+$1,$8,$9*
0 Add four rect primitives between the rounded corners*
20,1,$1+$1,$2,$3,$4,$5,0*
20,1,$1+$1,$4,$5,$6,$7,0*
20,1,$1+$1,$6,$7,$8,$9,0*
20,1,$1+$1,$8,$9,$2,$3,0*%
G04 Aperture macros list end*
%ADD10C,0.000100*%
%ADD11R,0.600000X1.900000*%
%ADD12R,1.900000X0.600000*%
%ADD13RoundRect,0.079500X0.079500X0.100500X-0.079500X0.100500X-0.079500X-0.100500X0.079500X-0.100500X0*%
%ADD14RoundRect,0.079500X-0.079500X-0.100500X0.079500X-0.100500X0.079500X0.100500X-0.079500X0.100500X0*%
%ADD15C,1.107440*%
%ADD16R,1.397000X0.965200*%
%ADD17RoundRect,0.250000X-0.650000X-2.450000X0.650000X-2.450000X0.650000X2.450000X-0.650000X2.450000X0*%
G04 APERTURE END LIST*
D10*
%TO.C,BT2*%
X36973100Y-53221600D02*
X35411800Y-56246400D01*
X29405200Y-50932200D01*
X32217200Y-49013900D01*
X36973100Y-53221600D01*
G36*
X36973100Y-53221600D02*
G01*
X35411800Y-56246400D01*
X29405200Y-50932200D01*
X32217200Y-49013900D01*
X36973100Y-53221600D01*
G37*
X44200000Y-34085000D02*
X37850000Y-34085000D01*
X37015000Y-30785000D01*
X45035000Y-30785000D01*
X44200000Y-34085000D01*
G36*
X44200000Y-34085000D02*
G01*
X37850000Y-34085000D01*
X37015000Y-30785000D01*
X45035000Y-30785000D01*
X44200000Y-34085000D01*
G37*
X52644800Y-50932200D02*
X46638200Y-56246400D01*
X45076900Y-53221600D01*
X49832800Y-49013900D01*
X52644800Y-50932200D01*
G36*
X52644800Y-50932200D02*
G01*
X46638200Y-56246400D01*
X45076900Y-53221600D01*
X49832800Y-49013900D01*
X52644800Y-50932200D01*
G37*
%TD*%
D11*
%TO.C,U2*%
X139000000Y-28500000D03*
X138200000Y-28500000D03*
X137400000Y-28500000D03*
X136600000Y-28500000D03*
X135800000Y-28500000D03*
X135000000Y-28500000D03*
X134200000Y-28500000D03*
X133400000Y-28500000D03*
X132600000Y-28500000D03*
X131800000Y-28500000D03*
X131000000Y-28500000D03*
D12*
X128500000Y-31000000D03*
X128500000Y-31800000D03*
X128500000Y-32600000D03*
X128500000Y-33400000D03*
X128500000Y-34200000D03*
X128500000Y-35000000D03*
X128500000Y-35800000D03*
X128500000Y-36600000D03*
X128500000Y-37400000D03*
X128500000Y-38200000D03*
X128500000Y-39000000D03*
D11*
X131000000Y-41500000D03*
X131800000Y-41500000D03*
X132600000Y-41500000D03*
X133400000Y-41500000D03*
X134200000Y-41500000D03*
X135000000Y-41500000D03*
X135800000Y-41500000D03*
X136600000Y-41500000D03*
X137400000Y-41500000D03*
X138200000Y-41500000D03*
X139000000Y-41500000D03*
D12*
X141500000Y-39000000D03*
X141500000Y-38200000D03*
X141500000Y-37400000D03*
X141500000Y-36600000D03*
X141500000Y-35800000D03*
X141500000Y-35000000D03*
X141500000Y-34200000D03*
X141500000Y-33400000D03*
X141500000Y-32600000D03*
X141500000Y-31800000D03*
X141500000Y-31000000D03*
%TD*%
D13*
%TO.C,R8*%
X220345000Y-64500000D03*
X219655000Y-64500000D03*
%TD*%
D14*
%TO.C,R11*%
X195655000Y-64000000D03*
X196345000Y-64000000D03*
%TD*%
D13*
%TO.C,R9*%
X202345000Y-64000000D03*
X201655000Y-64000000D03*
%TD*%
%TO.C,R10*%
X191345000Y-64000000D03*
X190655000Y-64000000D03*
%TD*%
D15*
%TO.C,N4*%
X143412500Y-54750000D03*
X146587500Y-54750000D03*
%TD*%
D13*
%TO.C,R5*%
X150345000Y-64000000D03*
X149655000Y-64000000D03*
%TD*%
D16*
%TO.C,C6*%
X63500000Y-50418001D03*
X63500000Y-47371999D03*
%TD*%
D13*
%TO.C,R4*%
X142345000Y-64000000D03*
X141655000Y-64000000D03*
%TD*%
D14*
%TO.C,R7*%
X116655000Y-64000000D03*
X117345000Y-64000000D03*
%TD*%
D11*
%TO.C,U3*%
X209000000Y-28500000D03*
X208200000Y-28500000D03*
X207400000Y-28500000D03*
X206600000Y-28500000D03*
X205800000Y-28500000D03*
X205000000Y-28500000D03*
X204200000Y-28500000D03*
X203400000Y-28500000D03*
X202600000Y-28500000D03*
X201800000Y-28500000D03*
X201000000Y-28500000D03*
D12*
X198500000Y-31000000D03*
X198500000Y-31800000D03*
X198500000Y-32600000D03*
X198500000Y-33400000D03*
X198500000Y-34200000D03*
X198500000Y-35000000D03*
X198500000Y-35800000D03*
X198500000Y-36600000D03*
X198500000Y-37400000D03*
X198500000Y-38200000D03*
X198500000Y-39000000D03*
D11*
X201000000Y-41500000D03*
X201800000Y-41500000D03*
X202600000Y-41500000D03*
X203400000Y-41500000D03*
X204200000Y-41500000D03*
X205000000Y-41500000D03*
X205800000Y-41500000D03*
X206600000Y-41500000D03*
X207400000Y-41500000D03*
X208200000Y-41500000D03*
X209000000Y-41500000D03*
D12*
X211500000Y-39000000D03*
X211500000Y-38200000D03*
X211500000Y-37400000D03*
X211500000Y-36600000D03*
X211500000Y-35800000D03*
X211500000Y-35000000D03*
X211500000Y-34200000D03*
X211500000Y-33400000D03*
X211500000Y-32600000D03*
X211500000Y-31800000D03*
X211500000Y-31000000D03*
%TD*%
D17*
%TO.C,C5*%
X91674000Y-39243000D03*
X96774000Y-39243000D03*
%TD*%
D13*
%TO.C,R6*%
X123345000Y-64000000D03*
X122655000Y-64000000D03*
%TD*%
D15*
%TO.C,N8*%
X193412500Y-54750000D03*
X196587500Y-54750000D03*
%TD*%
D17*
%TO.C,C4*%
X100701000Y-39243000D03*
X105801000Y-39243000D03*
%TD*%
M02*
