%TF.GenerationSoftware,KiCad,Pcbnew,9.0.4*%
%TF.CreationDate,2025-11-16T22:43:31-07:00*%
%TF.ProjectId,Nixie Clock ECE5930,4e697869-6520-4436-9c6f-636b20454345,rev?*%
%TF.SameCoordinates,Original*%
%TF.FileFunction,Legend,Bot*%
%TF.FilePolarity,Positive*%
%FSLAX46Y46*%
G04 Gerber Fmt 4.6, Leading zero omitted, Abs format (unit mm)*
G04 Created by KiCad (PCBNEW 9.0.4) date 2025-11-16 22:43:31*
%MOMM*%
%LPD*%
G01*
G04 APERTURE LIST*
G04 Aperture macros list*
%AMRoundRect*
0 Rectangle with rounded corners*
0 $1 Rounding radius*
0 $2 $3 $4 $5 $6 $7 $8 $9 X,Y pos of 4 corners*
0 Add a 4 corners polygon primitive as box body*
4,1,4,$2,$3,$4,$5,$6,$7,$8,$9,$2,$3,0*
0 Add four circle primitives for the rounded corners*
1,1,$1+$1,$2,$3*
1,1,$1+$1,$4,$5*
1,1,$1+$1,$6,$7*
1,1,$1+$1,$8,$9*
0 Add four rect primitives between the rounded corners*
20,1,$1+$1,$2,$3,$4,$5,0*
20,1,$1+$1,$4,$5,$6,$7,0*
20,1,$1+$1,$6,$7,$8,$9,0*
20,1,$1+$1,$8,$9,$2,$3,0*%
%AMFreePoly0*
4,1,9,3.862500,-0.866500,0.737500,-0.866500,0.737500,-0.450000,-0.737500,-0.450000,-0.737500,0.450000,0.737500,0.450000,0.737500,0.866500,3.862500,0.866500,3.862500,-0.866500,3.862500,-0.866500,$1*%
G04 Aperture macros list end*
%ADD10C,0.088900*%
%ADD11C,0.150000*%
%ADD12C,0.254000*%
%ADD13C,0.127000*%
%ADD14C,0.120000*%
%ADD15C,0.200000*%
%ADD16C,0.400000*%
%ADD17C,1.346200*%
%ADD18C,2.100000*%
%ADD19R,1.498600X1.498600*%
%ADD20C,1.498600*%
%ADD21RoundRect,0.250000X-0.550000X-0.550000X0.550000X-0.550000X0.550000X0.550000X-0.550000X0.550000X0*%
%ADD22C,1.600000*%
%ADD23RoundRect,0.250000X0.650000X2.450000X-0.650000X2.450000X-0.650000X-2.450000X0.650000X-2.450000X0*%
%ADD24R,1.925000X0.650000*%
%ADD25RoundRect,0.250000X-0.650000X-2.450000X0.650000X-2.450000X0.650000X2.450000X-0.650000X2.450000X0*%
%ADD26RoundRect,0.100000X-0.130000X-0.100000X0.130000X-0.100000X0.130000X0.100000X-0.130000X0.100000X0*%
%ADD27O,5.204000X2.704000*%
%ADD28O,4.704000X2.454000*%
%ADD29O,2.454000X4.704000*%
%ADD30R,0.850000X0.850000*%
%ADD31RoundRect,0.225000X0.425000X0.225000X-0.425000X0.225000X-0.425000X-0.225000X0.425000X-0.225000X0*%
%ADD32FreePoly0,180.000000*%
%ADD33RoundRect,0.150000X-0.825000X-0.150000X0.825000X-0.150000X0.825000X0.150000X-0.825000X0.150000X0*%
G04 APERTURE END LIST*
D10*
X144032380Y-59082903D02*
X144032380Y-57812903D01*
X144032380Y-57812903D02*
X144758095Y-59082903D01*
X144758095Y-59082903D02*
X144758095Y-57812903D01*
X145907142Y-58236236D02*
X145907142Y-59082903D01*
X145604761Y-57752427D02*
X145302380Y-58659569D01*
X145302380Y-58659569D02*
X146088571Y-58659569D01*
X194032380Y-59082903D02*
X194032380Y-57812903D01*
X194032380Y-57812903D02*
X194758095Y-59082903D01*
X194758095Y-59082903D02*
X194758095Y-57812903D01*
X195544285Y-58357188D02*
X195423333Y-58296712D01*
X195423333Y-58296712D02*
X195362856Y-58236236D01*
X195362856Y-58236236D02*
X195302380Y-58115284D01*
X195302380Y-58115284D02*
X195302380Y-58054807D01*
X195302380Y-58054807D02*
X195362856Y-57933855D01*
X195362856Y-57933855D02*
X195423333Y-57873379D01*
X195423333Y-57873379D02*
X195544285Y-57812903D01*
X195544285Y-57812903D02*
X195786190Y-57812903D01*
X195786190Y-57812903D02*
X195907142Y-57873379D01*
X195907142Y-57873379D02*
X195967618Y-57933855D01*
X195967618Y-57933855D02*
X196028095Y-58054807D01*
X196028095Y-58054807D02*
X196028095Y-58115284D01*
X196028095Y-58115284D02*
X195967618Y-58236236D01*
X195967618Y-58236236D02*
X195907142Y-58296712D01*
X195907142Y-58296712D02*
X195786190Y-58357188D01*
X195786190Y-58357188D02*
X195544285Y-58357188D01*
X195544285Y-58357188D02*
X195423333Y-58417665D01*
X195423333Y-58417665D02*
X195362856Y-58478141D01*
X195362856Y-58478141D02*
X195302380Y-58599093D01*
X195302380Y-58599093D02*
X195302380Y-58840998D01*
X195302380Y-58840998D02*
X195362856Y-58961950D01*
X195362856Y-58961950D02*
X195423333Y-59022427D01*
X195423333Y-59022427D02*
X195544285Y-59082903D01*
X195544285Y-59082903D02*
X195786190Y-59082903D01*
X195786190Y-59082903D02*
X195907142Y-59022427D01*
X195907142Y-59022427D02*
X195967618Y-58961950D01*
X195967618Y-58961950D02*
X196028095Y-58840998D01*
X196028095Y-58840998D02*
X196028095Y-58599093D01*
X196028095Y-58599093D02*
X195967618Y-58478141D01*
X195967618Y-58478141D02*
X195907142Y-58417665D01*
X195907142Y-58417665D02*
X195786190Y-58357188D01*
D11*
X58666666Y-41709580D02*
X58714285Y-41757200D01*
X58714285Y-41757200D02*
X58857142Y-41804819D01*
X58857142Y-41804819D02*
X58952380Y-41804819D01*
X58952380Y-41804819D02*
X59095237Y-41757200D01*
X59095237Y-41757200D02*
X59190475Y-41661961D01*
X59190475Y-41661961D02*
X59238094Y-41566723D01*
X59238094Y-41566723D02*
X59285713Y-41376247D01*
X59285713Y-41376247D02*
X59285713Y-41233390D01*
X59285713Y-41233390D02*
X59238094Y-41042914D01*
X59238094Y-41042914D02*
X59190475Y-40947676D01*
X59190475Y-40947676D02*
X59095237Y-40852438D01*
X59095237Y-40852438D02*
X58952380Y-40804819D01*
X58952380Y-40804819D02*
X58857142Y-40804819D01*
X58857142Y-40804819D02*
X58714285Y-40852438D01*
X58714285Y-40852438D02*
X58666666Y-40900057D01*
X58285713Y-40900057D02*
X58238094Y-40852438D01*
X58238094Y-40852438D02*
X58142856Y-40804819D01*
X58142856Y-40804819D02*
X57904761Y-40804819D01*
X57904761Y-40804819D02*
X57809523Y-40852438D01*
X57809523Y-40852438D02*
X57761904Y-40900057D01*
X57761904Y-40900057D02*
X57714285Y-40995295D01*
X57714285Y-40995295D02*
X57714285Y-41090533D01*
X57714285Y-41090533D02*
X57761904Y-41233390D01*
X57761904Y-41233390D02*
X58333332Y-41804819D01*
X58333332Y-41804819D02*
X57714285Y-41804819D01*
D12*
X83517619Y-40099318D02*
X83517619Y-41127413D01*
X83517619Y-41127413D02*
X83457142Y-41248365D01*
X83457142Y-41248365D02*
X83396666Y-41308842D01*
X83396666Y-41308842D02*
X83275714Y-41369318D01*
X83275714Y-41369318D02*
X83033809Y-41369318D01*
X83033809Y-41369318D02*
X82912857Y-41308842D01*
X82912857Y-41308842D02*
X82852380Y-41248365D01*
X82852380Y-41248365D02*
X82791904Y-41127413D01*
X82791904Y-41127413D02*
X82791904Y-40099318D01*
X81582381Y-40099318D02*
X82187143Y-40099318D01*
X82187143Y-40099318D02*
X82247619Y-40704080D01*
X82247619Y-40704080D02*
X82187143Y-40643603D01*
X82187143Y-40643603D02*
X82066190Y-40583127D01*
X82066190Y-40583127D02*
X81763809Y-40583127D01*
X81763809Y-40583127D02*
X81642857Y-40643603D01*
X81642857Y-40643603D02*
X81582381Y-40704080D01*
X81582381Y-40704080D02*
X81521904Y-40825032D01*
X81521904Y-40825032D02*
X81521904Y-41127413D01*
X81521904Y-41127413D02*
X81582381Y-41248365D01*
X81582381Y-41248365D02*
X81642857Y-41308842D01*
X81642857Y-41308842D02*
X81763809Y-41369318D01*
X81763809Y-41369318D02*
X82066190Y-41369318D01*
X82066190Y-41369318D02*
X82187143Y-41308842D01*
X82187143Y-41308842D02*
X82247619Y-41248365D01*
D11*
X58666666Y-57009580D02*
X58714285Y-57057200D01*
X58714285Y-57057200D02*
X58857142Y-57104819D01*
X58857142Y-57104819D02*
X58952380Y-57104819D01*
X58952380Y-57104819D02*
X59095237Y-57057200D01*
X59095237Y-57057200D02*
X59190475Y-56961961D01*
X59190475Y-56961961D02*
X59238094Y-56866723D01*
X59238094Y-56866723D02*
X59285713Y-56676247D01*
X59285713Y-56676247D02*
X59285713Y-56533390D01*
X59285713Y-56533390D02*
X59238094Y-56342914D01*
X59238094Y-56342914D02*
X59190475Y-56247676D01*
X59190475Y-56247676D02*
X59095237Y-56152438D01*
X59095237Y-56152438D02*
X58952380Y-56104819D01*
X58952380Y-56104819D02*
X58857142Y-56104819D01*
X58857142Y-56104819D02*
X58714285Y-56152438D01*
X58714285Y-56152438D02*
X58666666Y-56200057D01*
X58333332Y-56104819D02*
X57714285Y-56104819D01*
X57714285Y-56104819D02*
X58047618Y-56485771D01*
X58047618Y-56485771D02*
X57904761Y-56485771D01*
X57904761Y-56485771D02*
X57809523Y-56533390D01*
X57809523Y-56533390D02*
X57761904Y-56581009D01*
X57761904Y-56581009D02*
X57714285Y-56676247D01*
X57714285Y-56676247D02*
X57714285Y-56914342D01*
X57714285Y-56914342D02*
X57761904Y-57009580D01*
X57761904Y-57009580D02*
X57809523Y-57057200D01*
X57809523Y-57057200D02*
X57904761Y-57104819D01*
X57904761Y-57104819D02*
X58190475Y-57104819D01*
X58190475Y-57104819D02*
X58285713Y-57057200D01*
X58285713Y-57057200D02*
X58333332Y-57009580D01*
X58666666Y-40009580D02*
X58714285Y-40057200D01*
X58714285Y-40057200D02*
X58857142Y-40104819D01*
X58857142Y-40104819D02*
X58952380Y-40104819D01*
X58952380Y-40104819D02*
X59095237Y-40057200D01*
X59095237Y-40057200D02*
X59190475Y-39961961D01*
X59190475Y-39961961D02*
X59238094Y-39866723D01*
X59238094Y-39866723D02*
X59285713Y-39676247D01*
X59285713Y-39676247D02*
X59285713Y-39533390D01*
X59285713Y-39533390D02*
X59238094Y-39342914D01*
X59238094Y-39342914D02*
X59190475Y-39247676D01*
X59190475Y-39247676D02*
X59095237Y-39152438D01*
X59095237Y-39152438D02*
X58952380Y-39104819D01*
X58952380Y-39104819D02*
X58857142Y-39104819D01*
X58857142Y-39104819D02*
X58714285Y-39152438D01*
X58714285Y-39152438D02*
X58666666Y-39200057D01*
X57809523Y-39438152D02*
X57809523Y-40104819D01*
X58047618Y-39057200D02*
X58285713Y-39771485D01*
X58285713Y-39771485D02*
X57666666Y-39771485D01*
X64166666Y-28504819D02*
X64499999Y-28028628D01*
X64738094Y-28504819D02*
X64738094Y-27504819D01*
X64738094Y-27504819D02*
X64357142Y-27504819D01*
X64357142Y-27504819D02*
X64261904Y-27552438D01*
X64261904Y-27552438D02*
X64214285Y-27600057D01*
X64214285Y-27600057D02*
X64166666Y-27695295D01*
X64166666Y-27695295D02*
X64166666Y-27838152D01*
X64166666Y-27838152D02*
X64214285Y-27933390D01*
X64214285Y-27933390D02*
X64261904Y-27981009D01*
X64261904Y-27981009D02*
X64357142Y-28028628D01*
X64357142Y-28028628D02*
X64738094Y-28028628D01*
X63214285Y-28504819D02*
X63785713Y-28504819D01*
X63499999Y-28504819D02*
X63499999Y-27504819D01*
X63499999Y-27504819D02*
X63595237Y-27647676D01*
X63595237Y-27647676D02*
X63690475Y-27742914D01*
X63690475Y-27742914D02*
X63785713Y-27790533D01*
X64166666Y-32504819D02*
X64499999Y-32028628D01*
X64738094Y-32504819D02*
X64738094Y-31504819D01*
X64738094Y-31504819D02*
X64357142Y-31504819D01*
X64357142Y-31504819D02*
X64261904Y-31552438D01*
X64261904Y-31552438D02*
X64214285Y-31600057D01*
X64214285Y-31600057D02*
X64166666Y-31695295D01*
X64166666Y-31695295D02*
X64166666Y-31838152D01*
X64166666Y-31838152D02*
X64214285Y-31933390D01*
X64214285Y-31933390D02*
X64261904Y-31981009D01*
X64261904Y-31981009D02*
X64357142Y-32028628D01*
X64357142Y-32028628D02*
X64738094Y-32028628D01*
X63833332Y-31504819D02*
X63214285Y-31504819D01*
X63214285Y-31504819D02*
X63547618Y-31885771D01*
X63547618Y-31885771D02*
X63404761Y-31885771D01*
X63404761Y-31885771D02*
X63309523Y-31933390D01*
X63309523Y-31933390D02*
X63261904Y-31981009D01*
X63261904Y-31981009D02*
X63214285Y-32076247D01*
X63214285Y-32076247D02*
X63214285Y-32314342D01*
X63214285Y-32314342D02*
X63261904Y-32409580D01*
X63261904Y-32409580D02*
X63309523Y-32457200D01*
X63309523Y-32457200D02*
X63404761Y-32504819D01*
X63404761Y-32504819D02*
X63690475Y-32504819D01*
X63690475Y-32504819D02*
X63785713Y-32457200D01*
X63785713Y-32457200D02*
X63833332Y-32409580D01*
X58666666Y-31009580D02*
X58714285Y-31057200D01*
X58714285Y-31057200D02*
X58857142Y-31104819D01*
X58857142Y-31104819D02*
X58952380Y-31104819D01*
X58952380Y-31104819D02*
X59095237Y-31057200D01*
X59095237Y-31057200D02*
X59190475Y-30961961D01*
X59190475Y-30961961D02*
X59238094Y-30866723D01*
X59238094Y-30866723D02*
X59285713Y-30676247D01*
X59285713Y-30676247D02*
X59285713Y-30533390D01*
X59285713Y-30533390D02*
X59238094Y-30342914D01*
X59238094Y-30342914D02*
X59190475Y-30247676D01*
X59190475Y-30247676D02*
X59095237Y-30152438D01*
X59095237Y-30152438D02*
X58952380Y-30104819D01*
X58952380Y-30104819D02*
X58857142Y-30104819D01*
X58857142Y-30104819D02*
X58714285Y-30152438D01*
X58714285Y-30152438D02*
X58666666Y-30200057D01*
X57761904Y-30104819D02*
X58238094Y-30104819D01*
X58238094Y-30104819D02*
X58285713Y-30581009D01*
X58285713Y-30581009D02*
X58238094Y-30533390D01*
X58238094Y-30533390D02*
X58142856Y-30485771D01*
X58142856Y-30485771D02*
X57904761Y-30485771D01*
X57904761Y-30485771D02*
X57809523Y-30533390D01*
X57809523Y-30533390D02*
X57761904Y-30581009D01*
X57761904Y-30581009D02*
X57714285Y-30676247D01*
X57714285Y-30676247D02*
X57714285Y-30914342D01*
X57714285Y-30914342D02*
X57761904Y-31009580D01*
X57761904Y-31009580D02*
X57809523Y-31057200D01*
X57809523Y-31057200D02*
X57904761Y-31104819D01*
X57904761Y-31104819D02*
X58142856Y-31104819D01*
X58142856Y-31104819D02*
X58238094Y-31057200D01*
X58238094Y-31057200D02*
X58285713Y-31009580D01*
X78410290Y-53938006D02*
X79125020Y-53938006D01*
X79125020Y-53938006D02*
X79267966Y-53890357D01*
X79267966Y-53890357D02*
X79363264Y-53795060D01*
X79363264Y-53795060D02*
X79410912Y-53652114D01*
X79410912Y-53652114D02*
X79410912Y-53556817D01*
X78505588Y-54366844D02*
X78457939Y-54414493D01*
X78457939Y-54414493D02*
X78410290Y-54509790D01*
X78410290Y-54509790D02*
X78410290Y-54748034D01*
X78410290Y-54748034D02*
X78457939Y-54843331D01*
X78457939Y-54843331D02*
X78505588Y-54890980D01*
X78505588Y-54890980D02*
X78600885Y-54938628D01*
X78600885Y-54938628D02*
X78696182Y-54938628D01*
X78696182Y-54938628D02*
X78839128Y-54890980D01*
X78839128Y-54890980D02*
X79410912Y-54319196D01*
X79410912Y-54319196D02*
X79410912Y-54938628D01*
X94948333Y-52564819D02*
X94948333Y-53279104D01*
X94948333Y-53279104D02*
X94995952Y-53421961D01*
X94995952Y-53421961D02*
X95091190Y-53517200D01*
X95091190Y-53517200D02*
X95234047Y-53564819D01*
X95234047Y-53564819D02*
X95329285Y-53564819D01*
X94567380Y-52564819D02*
X93948333Y-52564819D01*
X93948333Y-52564819D02*
X94281666Y-52945771D01*
X94281666Y-52945771D02*
X94138809Y-52945771D01*
X94138809Y-52945771D02*
X94043571Y-52993390D01*
X94043571Y-52993390D02*
X93995952Y-53041009D01*
X93995952Y-53041009D02*
X93948333Y-53136247D01*
X93948333Y-53136247D02*
X93948333Y-53374342D01*
X93948333Y-53374342D02*
X93995952Y-53469580D01*
X93995952Y-53469580D02*
X94043571Y-53517200D01*
X94043571Y-53517200D02*
X94138809Y-53564819D01*
X94138809Y-53564819D02*
X94424523Y-53564819D01*
X94424523Y-53564819D02*
X94519761Y-53517200D01*
X94519761Y-53517200D02*
X94567380Y-53469580D01*
X97662904Y-56914819D02*
X97662904Y-57724342D01*
X97662904Y-57724342D02*
X97615285Y-57819580D01*
X97615285Y-57819580D02*
X97567666Y-57867200D01*
X97567666Y-57867200D02*
X97472428Y-57914819D01*
X97472428Y-57914819D02*
X97281952Y-57914819D01*
X97281952Y-57914819D02*
X97186714Y-57867200D01*
X97186714Y-57867200D02*
X97139095Y-57819580D01*
X97139095Y-57819580D02*
X97091476Y-57724342D01*
X97091476Y-57724342D02*
X97091476Y-56914819D01*
X96186714Y-56914819D02*
X96377190Y-56914819D01*
X96377190Y-56914819D02*
X96472428Y-56962438D01*
X96472428Y-56962438D02*
X96520047Y-57010057D01*
X96520047Y-57010057D02*
X96615285Y-57152914D01*
X96615285Y-57152914D02*
X96662904Y-57343390D01*
X96662904Y-57343390D02*
X96662904Y-57724342D01*
X96662904Y-57724342D02*
X96615285Y-57819580D01*
X96615285Y-57819580D02*
X96567666Y-57867200D01*
X96567666Y-57867200D02*
X96472428Y-57914819D01*
X96472428Y-57914819D02*
X96281952Y-57914819D01*
X96281952Y-57914819D02*
X96186714Y-57867200D01*
X96186714Y-57867200D02*
X96139095Y-57819580D01*
X96139095Y-57819580D02*
X96091476Y-57724342D01*
X96091476Y-57724342D02*
X96091476Y-57486247D01*
X96091476Y-57486247D02*
X96139095Y-57391009D01*
X96139095Y-57391009D02*
X96186714Y-57343390D01*
X96186714Y-57343390D02*
X96281952Y-57295771D01*
X96281952Y-57295771D02*
X96472428Y-57295771D01*
X96472428Y-57295771D02*
X96567666Y-57343390D01*
X96567666Y-57343390D02*
X96615285Y-57391009D01*
X96615285Y-57391009D02*
X96662904Y-57486247D01*
X58666666Y-65509580D02*
X58714285Y-65557200D01*
X58714285Y-65557200D02*
X58857142Y-65604819D01*
X58857142Y-65604819D02*
X58952380Y-65604819D01*
X58952380Y-65604819D02*
X59095237Y-65557200D01*
X59095237Y-65557200D02*
X59190475Y-65461961D01*
X59190475Y-65461961D02*
X59238094Y-65366723D01*
X59238094Y-65366723D02*
X59285713Y-65176247D01*
X59285713Y-65176247D02*
X59285713Y-65033390D01*
X59285713Y-65033390D02*
X59238094Y-64842914D01*
X59238094Y-64842914D02*
X59190475Y-64747676D01*
X59190475Y-64747676D02*
X59095237Y-64652438D01*
X59095237Y-64652438D02*
X58952380Y-64604819D01*
X58952380Y-64604819D02*
X58857142Y-64604819D01*
X58857142Y-64604819D02*
X58714285Y-64652438D01*
X58714285Y-64652438D02*
X58666666Y-64700057D01*
X57714285Y-65604819D02*
X58285713Y-65604819D01*
X57999999Y-65604819D02*
X57999999Y-64604819D01*
X57999999Y-64604819D02*
X58095237Y-64747676D01*
X58095237Y-64747676D02*
X58190475Y-64842914D01*
X58190475Y-64842914D02*
X58285713Y-64890533D01*
X94106904Y-51114819D02*
X94106904Y-51924342D01*
X94106904Y-51924342D02*
X94059285Y-52019580D01*
X94059285Y-52019580D02*
X94011666Y-52067200D01*
X94011666Y-52067200D02*
X93916428Y-52114819D01*
X93916428Y-52114819D02*
X93725952Y-52114819D01*
X93725952Y-52114819D02*
X93630714Y-52067200D01*
X93630714Y-52067200D02*
X93583095Y-52019580D01*
X93583095Y-52019580D02*
X93535476Y-51924342D01*
X93535476Y-51924342D02*
X93535476Y-51114819D01*
X92630714Y-51448152D02*
X92630714Y-52114819D01*
X92868809Y-51067200D02*
X93106904Y-51781485D01*
X93106904Y-51781485D02*
X92487857Y-51781485D01*
X64166666Y-37504819D02*
X64499999Y-37028628D01*
X64738094Y-37504819D02*
X64738094Y-36504819D01*
X64738094Y-36504819D02*
X64357142Y-36504819D01*
X64357142Y-36504819D02*
X64261904Y-36552438D01*
X64261904Y-36552438D02*
X64214285Y-36600057D01*
X64214285Y-36600057D02*
X64166666Y-36695295D01*
X64166666Y-36695295D02*
X64166666Y-36838152D01*
X64166666Y-36838152D02*
X64214285Y-36933390D01*
X64214285Y-36933390D02*
X64261904Y-36981009D01*
X64261904Y-36981009D02*
X64357142Y-37028628D01*
X64357142Y-37028628D02*
X64738094Y-37028628D01*
X63785713Y-36600057D02*
X63738094Y-36552438D01*
X63738094Y-36552438D02*
X63642856Y-36504819D01*
X63642856Y-36504819D02*
X63404761Y-36504819D01*
X63404761Y-36504819D02*
X63309523Y-36552438D01*
X63309523Y-36552438D02*
X63261904Y-36600057D01*
X63261904Y-36600057D02*
X63214285Y-36695295D01*
X63214285Y-36695295D02*
X63214285Y-36790533D01*
X63214285Y-36790533D02*
X63261904Y-36933390D01*
X63261904Y-36933390D02*
X63833332Y-37504819D01*
X63833332Y-37504819D02*
X63214285Y-37504819D01*
X75954819Y-52041666D02*
X76669104Y-52041666D01*
X76669104Y-52041666D02*
X76811961Y-51994047D01*
X76811961Y-51994047D02*
X76907200Y-51898809D01*
X76907200Y-51898809D02*
X76954819Y-51755952D01*
X76954819Y-51755952D02*
X76954819Y-51660714D01*
X76954819Y-53041666D02*
X76954819Y-52470238D01*
X76954819Y-52755952D02*
X75954819Y-52755952D01*
X75954819Y-52755952D02*
X76097676Y-52660714D01*
X76097676Y-52660714D02*
X76192914Y-52565476D01*
X76192914Y-52565476D02*
X76240533Y-52470238D01*
D13*
%TO.C,BT2*%
X44767300Y-33147401D02*
G75*
G02*
X50885403Y-49344602I-3736480J-10665449D01*
G01*
D14*
%TO.C,C2*%
X59915748Y-42390000D02*
X57084252Y-42390000D01*
X59915748Y-47610000D02*
X57084252Y-47610000D01*
D15*
%TO.C,U5*%
X79150000Y-35490000D02*
X79150000Y-45790000D01*
X79150000Y-45790000D02*
X85950000Y-45790000D01*
X85950000Y-35490000D02*
X79150000Y-35490000D01*
X85950000Y-45790000D02*
X85950000Y-35490000D01*
X88225000Y-35520000D02*
X86300000Y-35520000D01*
D14*
%TO.C,C3*%
X57084252Y-50390000D02*
X59915748Y-50390000D01*
X57084252Y-55610000D02*
X59915748Y-55610000D01*
%TO.C,C4*%
X57084252Y-33390000D02*
X59915748Y-33390000D01*
X57084252Y-38610000D02*
X59915748Y-38610000D01*
%TO.C,C5*%
X57084252Y-24390000D02*
X59915748Y-24390000D01*
X57084252Y-29610000D02*
X59915748Y-29610000D01*
D13*
%TO.C,J2*%
X81225000Y-51085000D02*
X81225000Y-52235000D01*
X81225000Y-57335000D02*
X81225000Y-65485000D01*
X81225000Y-65485000D02*
X90225000Y-65485000D01*
X83175000Y-51085000D02*
X81225000Y-51085000D01*
X90225000Y-51085000D02*
X88375000Y-51085000D01*
X90225000Y-65485000D02*
X90225000Y-51085000D01*
D16*
X85925000Y-49785000D02*
G75*
G02*
X85525000Y-49785000I-200000J0D01*
G01*
X85525000Y-49785000D02*
G75*
G02*
X85925000Y-49785000I200000J0D01*
G01*
D14*
%TO.C,J3*%
X94630000Y-54000000D02*
X94630000Y-55220000D01*
X94630000Y-55220000D02*
X95255000Y-55220000D01*
X95255000Y-54000000D02*
X94630000Y-54000000D01*
X96725000Y-53875000D02*
X95990000Y-53875000D01*
X96725000Y-54610000D02*
X96725000Y-53875000D01*
X94630000Y-54350000D02*
X92630000Y-54350000D01*
X92630000Y-54870000D01*
X94630000Y-54870000D01*
X94630000Y-54350000D01*
G36*
X94630000Y-54350000D02*
G01*
X92630000Y-54350000D01*
X92630000Y-54870000D01*
X94630000Y-54870000D01*
X94630000Y-54350000D01*
G37*
%TO.C,U6*%
X95541000Y-59580000D02*
X95541000Y-58600000D01*
X95541000Y-62340000D02*
X95541000Y-63320000D01*
X95541000Y-63320000D02*
X98261000Y-63320000D01*
X98121000Y-58600000D02*
X95541000Y-58600000D01*
X98671000Y-58750000D02*
X98431000Y-58420000D01*
X98911000Y-58420000D01*
X98671000Y-58750000D01*
G36*
X98671000Y-58750000D02*
G01*
X98431000Y-58420000D01*
X98911000Y-58420000D01*
X98671000Y-58750000D01*
G37*
%TO.C,C1*%
X57084252Y-58890000D02*
X59915748Y-58890000D01*
X57084252Y-64110000D02*
X59915748Y-64110000D01*
%TO.C,U4*%
X93345000Y-45700000D02*
X91395000Y-45700000D01*
X93345000Y-45700000D02*
X95295000Y-45700000D01*
X93345000Y-50820000D02*
X91395000Y-50820000D01*
X93345000Y-50820000D02*
X95295000Y-50820000D01*
X90885000Y-51055000D02*
X90405000Y-51055000D01*
X90645000Y-50725000D01*
X90885000Y-51055000D01*
G36*
X90885000Y-51055000D02*
G01*
X90405000Y-51055000D01*
X90645000Y-50725000D01*
X90885000Y-51055000D01*
G37*
%TO.C,J1*%
X77265000Y-50265000D02*
X77265000Y-51000000D01*
X77390000Y-51735000D02*
X77390000Y-52360000D01*
X77390000Y-52360000D02*
X78610000Y-52360000D01*
X78000000Y-50265000D02*
X77265000Y-50265000D01*
X78610000Y-52360000D02*
X78610000Y-51735000D01*
X77740000Y-52360000D02*
X78260000Y-52360000D01*
X78260000Y-54360000D01*
X77740000Y-54360000D01*
X77740000Y-52360000D01*
G36*
X77740000Y-52360000D02*
G01*
X78260000Y-52360000D01*
X78260000Y-54360000D01*
X77740000Y-54360000D01*
X77740000Y-52360000D01*
G37*
%TD*%
%LPC*%
D17*
%TO.C,N7*%
X224907300Y-58265360D03*
X235092700Y-58265360D03*
X236144260Y-55494220D03*
X235786120Y-52555440D03*
X234104640Y-50117040D03*
X231480820Y-48740360D03*
X228519180Y-48740360D03*
X225895360Y-50117040D03*
X224213880Y-52555440D03*
X223855740Y-55494220D03*
X230000000Y-60937440D03*
X232875280Y-60228780D03*
X227124720Y-60228780D03*
%TD*%
%TO.C,N3*%
X154907300Y-58265360D03*
X165092700Y-58265360D03*
X166144260Y-55494220D03*
X165786120Y-52555440D03*
X164104640Y-50117040D03*
X161480820Y-48740360D03*
X158519180Y-48740360D03*
X155895360Y-50117040D03*
X154213880Y-52555440D03*
X153855740Y-55494220D03*
X160000000Y-60937440D03*
X162875280Y-60228780D03*
X157124720Y-60228780D03*
%TD*%
D18*
%TO.C,REF\u002A\u002A*%
X241935000Y-26670000D03*
%TD*%
D17*
%TO.C,N1*%
X104907300Y-58265360D03*
X115092700Y-58265360D03*
X116144260Y-55494220D03*
X115786120Y-52555440D03*
X114104640Y-50117040D03*
X111480820Y-48740360D03*
X108519180Y-48740360D03*
X105895360Y-50117040D03*
X104213880Y-52555440D03*
X103855740Y-55494220D03*
X110000000Y-60937440D03*
X112875280Y-60228780D03*
X107124720Y-60228780D03*
%TD*%
D19*
%TO.C,SW6*%
X95114998Y-32249751D03*
D20*
X95114998Y-25749750D03*
X99614999Y-32249751D03*
X99614999Y-25749750D03*
%TD*%
D18*
%TO.C,REF\u002A\u002A*%
X33020000Y-26670000D03*
%TD*%
D17*
%TO.C,N2*%
X124907300Y-58125360D03*
X135092700Y-58125360D03*
X136144260Y-55354220D03*
X135786120Y-52415440D03*
X134104640Y-49977040D03*
X131480820Y-48600360D03*
X128519180Y-48600360D03*
X125895360Y-49977040D03*
X124213880Y-52415440D03*
X123855740Y-55354220D03*
X130000000Y-60797440D03*
X132875280Y-60088780D03*
X127124720Y-60088780D03*
%TD*%
D21*
%TO.C,U1*%
X66500000Y-25800000D03*
D22*
X66500000Y-28340000D03*
X66500000Y-30880000D03*
X66500000Y-33420000D03*
X66500000Y-35960000D03*
X66500000Y-38500000D03*
X66500000Y-41040000D03*
X66500000Y-43580000D03*
X66500000Y-46120000D03*
X66500000Y-48660000D03*
X66500000Y-51200000D03*
X66500000Y-53740000D03*
X66500000Y-56280000D03*
X66500000Y-58820000D03*
X74120000Y-58820000D03*
X74120000Y-56280000D03*
X74120000Y-53740000D03*
X74120000Y-51200000D03*
X74120000Y-48660000D03*
X74120000Y-46120000D03*
X74120000Y-43580000D03*
X74120000Y-41040000D03*
X74120000Y-38500000D03*
X74120000Y-35960000D03*
X74120000Y-33420000D03*
X74120000Y-30880000D03*
X74120000Y-28340000D03*
X74120000Y-25800000D03*
%TD*%
D17*
%TO.C,N6*%
X204907300Y-58265360D03*
X215092700Y-58265360D03*
X216144260Y-55494220D03*
X215786120Y-52555440D03*
X214104640Y-50117040D03*
X211480820Y-48740360D03*
X208519180Y-48740360D03*
X205895360Y-50117040D03*
X204213880Y-52555440D03*
X203855740Y-55494220D03*
X210000000Y-60937440D03*
X212875280Y-60228780D03*
X207124720Y-60228780D03*
%TD*%
D18*
%TO.C,REF\u002A\u002A*%
X33020000Y-61595000D03*
%TD*%
D17*
%TO.C,N5*%
X174907300Y-58265360D03*
X185092700Y-58265360D03*
X186144260Y-55494220D03*
X185786120Y-52555440D03*
X184104640Y-50117040D03*
X181480820Y-48740360D03*
X178519180Y-48740360D03*
X175895360Y-50117040D03*
X174213880Y-52555440D03*
X173855740Y-55494220D03*
X180000000Y-60937440D03*
X182875280Y-60228780D03*
X177124720Y-60228780D03*
%TD*%
D19*
%TO.C,SW4*%
X77939000Y-32249751D03*
D20*
X77939000Y-25749750D03*
X82439001Y-32249751D03*
X82439001Y-25749750D03*
%TD*%
D18*
%TO.C,REF\u002A\u002A*%
X241935000Y-61595000D03*
%TD*%
D19*
%TO.C,SW5*%
X86526999Y-32249751D03*
D20*
X86526999Y-25749750D03*
X91027000Y-32249751D03*
X91027000Y-25749750D03*
%TD*%
D23*
%TO.C,C2*%
X61050000Y-45000000D03*
X55950000Y-45000000D03*
%TD*%
D24*
%TO.C,U5*%
X87262000Y-36195000D03*
X87262000Y-37465000D03*
X87262000Y-38735000D03*
X87262000Y-40005000D03*
X87262000Y-41275000D03*
X87262000Y-42545000D03*
X87262000Y-43815000D03*
X87262000Y-45085000D03*
X77838000Y-45085000D03*
X77838000Y-43815000D03*
X77838000Y-42545000D03*
X77838000Y-41275000D03*
X77838000Y-40005000D03*
X77838000Y-38735000D03*
X77838000Y-37465000D03*
X77838000Y-36195000D03*
%TD*%
D25*
%TO.C,C3*%
X55950000Y-53000000D03*
X61050000Y-53000000D03*
%TD*%
%TO.C,C4*%
X55950000Y-36000000D03*
X61050000Y-36000000D03*
%TD*%
D26*
%TO.C,R1*%
X63680000Y-27000000D03*
X64320000Y-27000000D03*
%TD*%
%TO.C,R3*%
X63680000Y-31000000D03*
X64320000Y-31000000D03*
%TD*%
D25*
%TO.C,C5*%
X55950000Y-27000000D03*
X61050000Y-27000000D03*
%TD*%
D27*
%TO.C,J2*%
X85725000Y-51785000D03*
D28*
X85725000Y-57785000D03*
D29*
X81025000Y-54785000D03*
%TD*%
D30*
%TO.C,J3*%
X95990000Y-54610000D03*
%TD*%
D31*
%TO.C,U6*%
X98851000Y-59460000D03*
D32*
X98763500Y-60960000D03*
D31*
X98851000Y-62460000D03*
%TD*%
D25*
%TO.C,C1*%
X55950000Y-61500000D03*
X61050000Y-61500000D03*
%TD*%
D33*
%TO.C,U4*%
X90870000Y-50165000D03*
X90870000Y-48895000D03*
X90870000Y-47625000D03*
X90870000Y-46355000D03*
X95820000Y-46355000D03*
X95820000Y-47625000D03*
X95820000Y-48895000D03*
X95820000Y-50165000D03*
%TD*%
D26*
%TO.C,R2*%
X63680000Y-36000000D03*
X64320000Y-36000000D03*
%TD*%
D30*
%TO.C,J1*%
X78000000Y-51000000D03*
%TD*%
%LPD*%
M02*
