%TF.GenerationSoftware,KiCad,Pcbnew,9.0.4*%
%TF.CreationDate,2025-11-16T22:43:31-07:00*%
%TF.ProjectId,Nixie Clock ECE5930,4e697869-6520-4436-9c6f-636b20454345,rev?*%
%TF.SameCoordinates,Original*%
%TF.FileFunction,Legend,Top*%
%TF.FilePolarity,Positive*%
%FSLAX46Y46*%
G04 Gerber Fmt 4.6, Leading zero omitted, Abs format (unit mm)*
G04 Created by KiCad (PCBNEW 9.0.4) date 2025-11-16 22:43:31*
%MOMM*%
%LPD*%
G01*
G04 APERTURE LIST*
G04 Aperture macros list*
%AMRoundRect*
0 Rectangle with rounded corners*
0 $1 Rounding radius*
0 $2 $3 $4 $5 $6 $7 $8 $9 X,Y pos of 4 corners*
0 Add a 4 corners polygon primitive as box body*
4,1,4,$2,$3,$4,$5,$6,$7,$8,$9,$2,$3,0*
0 Add four circle primitives for the rounded corners*
1,1,$1+$1,$2,$3*
1,1,$1+$1,$4,$5*
1,1,$1+$1,$6,$7*
1,1,$1+$1,$8,$9*
0 Add four rect primitives between the rounded corners*
20,1,$1+$1,$2,$3,$4,$5,0*
20,1,$1+$1,$4,$5,$6,$7,0*
20,1,$1+$1,$6,$7,$8,$9,0*
20,1,$1+$1,$8,$9,$2,$3,0*%
G04 Aperture macros list end*
%ADD10C,0.300000*%
%ADD11C,0.254000*%
%ADD12C,0.150000*%
%ADD13C,0.101600*%
%ADD14C,0.200000*%
%ADD15C,0.400000*%
%ADD16C,0.127000*%
%ADD17C,0.152400*%
%ADD18C,0.120000*%
%ADD19C,1.107440*%
%ADD20C,0.000100*%
%ADD21C,0.001000*%
%ADD22R,0.600000X1.900000*%
%ADD23R,1.900000X0.600000*%
%ADD24RoundRect,0.102000X-0.760000X-0.760000X0.760000X-0.760000X0.760000X0.760000X-0.760000X0.760000X0*%
%ADD25C,1.346200*%
%ADD26C,2.100000*%
%ADD27RoundRect,0.100000X0.130000X0.100000X-0.130000X0.100000X-0.130000X-0.100000X0.130000X-0.100000X0*%
%ADD28RoundRect,0.100000X-0.130000X-0.100000X0.130000X-0.100000X0.130000X0.100000X-0.130000X0.100000X0*%
%ADD29R,1.498600X1.498600*%
%ADD30C,1.498600*%
%ADD31RoundRect,0.250000X-0.550000X-0.550000X0.550000X-0.550000X0.550000X0.550000X-0.550000X0.550000X0*%
%ADD32C,1.600000*%
%ADD33R,1.397000X0.965200*%
%ADD34RoundRect,0.250000X-0.650000X-2.450000X0.650000X-2.450000X0.650000X2.450000X-0.650000X2.450000X0*%
%ADD35O,5.204000X2.704000*%
%ADD36O,4.704000X2.454000*%
%ADD37O,2.454000X4.704000*%
%ADD38R,0.850000X0.850000*%
G04 APERTURE END LIST*
D10*
X204254510Y-23780114D02*
X204468796Y-23851542D01*
X204468796Y-23851542D02*
X204540225Y-23922971D01*
X204540225Y-23922971D02*
X204611653Y-24065828D01*
X204611653Y-24065828D02*
X204611653Y-24280114D01*
X204611653Y-24280114D02*
X204540225Y-24422971D01*
X204540225Y-24422971D02*
X204468796Y-24494400D01*
X204468796Y-24494400D02*
X204325939Y-24565828D01*
X204325939Y-24565828D02*
X203754510Y-24565828D01*
X203754510Y-24565828D02*
X203754510Y-23065828D01*
X203754510Y-23065828D02*
X204254510Y-23065828D01*
X204254510Y-23065828D02*
X204397368Y-23137257D01*
X204397368Y-23137257D02*
X204468796Y-23208685D01*
X204468796Y-23208685D02*
X204540225Y-23351542D01*
X204540225Y-23351542D02*
X204540225Y-23494400D01*
X204540225Y-23494400D02*
X204468796Y-23637257D01*
X204468796Y-23637257D02*
X204397368Y-23708685D01*
X204397368Y-23708685D02*
X204254510Y-23780114D01*
X204254510Y-23780114D02*
X203754510Y-23780114D01*
X205468796Y-24565828D02*
X205325939Y-24494400D01*
X205325939Y-24494400D02*
X205254510Y-24422971D01*
X205254510Y-24422971D02*
X205183082Y-24280114D01*
X205183082Y-24280114D02*
X205183082Y-23851542D01*
X205183082Y-23851542D02*
X205254510Y-23708685D01*
X205254510Y-23708685D02*
X205325939Y-23637257D01*
X205325939Y-23637257D02*
X205468796Y-23565828D01*
X205468796Y-23565828D02*
X205683082Y-23565828D01*
X205683082Y-23565828D02*
X205825939Y-23637257D01*
X205825939Y-23637257D02*
X205897368Y-23708685D01*
X205897368Y-23708685D02*
X205968796Y-23851542D01*
X205968796Y-23851542D02*
X205968796Y-24280114D01*
X205968796Y-24280114D02*
X205897368Y-24422971D01*
X205897368Y-24422971D02*
X205825939Y-24494400D01*
X205825939Y-24494400D02*
X205683082Y-24565828D01*
X205683082Y-24565828D02*
X205468796Y-24565828D01*
X206611653Y-24565828D02*
X206611653Y-23065828D01*
X206611653Y-23637257D02*
X206754511Y-23565828D01*
X206754511Y-23565828D02*
X207040225Y-23565828D01*
X207040225Y-23565828D02*
X207183082Y-23637257D01*
X207183082Y-23637257D02*
X207254511Y-23708685D01*
X207254511Y-23708685D02*
X207325939Y-23851542D01*
X207325939Y-23851542D02*
X207325939Y-24280114D01*
X207325939Y-24280114D02*
X207254511Y-24422971D01*
X207254511Y-24422971D02*
X207183082Y-24494400D01*
X207183082Y-24494400D02*
X207040225Y-24565828D01*
X207040225Y-24565828D02*
X206754511Y-24565828D01*
X206754511Y-24565828D02*
X206611653Y-24494400D01*
X207968796Y-24565828D02*
X207968796Y-23065828D01*
X207968796Y-23637257D02*
X208111654Y-23565828D01*
X208111654Y-23565828D02*
X208397368Y-23565828D01*
X208397368Y-23565828D02*
X208540225Y-23637257D01*
X208540225Y-23637257D02*
X208611654Y-23708685D01*
X208611654Y-23708685D02*
X208683082Y-23851542D01*
X208683082Y-23851542D02*
X208683082Y-24280114D01*
X208683082Y-24280114D02*
X208611654Y-24422971D01*
X208611654Y-24422971D02*
X208540225Y-24494400D01*
X208540225Y-24494400D02*
X208397368Y-24565828D01*
X208397368Y-24565828D02*
X208111654Y-24565828D01*
X208111654Y-24565828D02*
X207968796Y-24494400D01*
X209183082Y-23565828D02*
X209540225Y-24565828D01*
X209897368Y-23565828D02*
X209540225Y-24565828D01*
X209540225Y-24565828D02*
X209397368Y-24922971D01*
X209397368Y-24922971D02*
X209325939Y-24994400D01*
X209325939Y-24994400D02*
X209183082Y-25065828D01*
X211397368Y-23065828D02*
X212254511Y-23065828D01*
X211825939Y-24565828D02*
X211825939Y-23065828D01*
X212754510Y-24565828D02*
X212754510Y-23065828D01*
X213397368Y-24565828D02*
X213397368Y-23780114D01*
X213397368Y-23780114D02*
X213325939Y-23637257D01*
X213325939Y-23637257D02*
X213183082Y-23565828D01*
X213183082Y-23565828D02*
X212968796Y-23565828D01*
X212968796Y-23565828D02*
X212825939Y-23637257D01*
X212825939Y-23637257D02*
X212754510Y-23708685D01*
X214325939Y-24565828D02*
X214183082Y-24494400D01*
X214183082Y-24494400D02*
X214111653Y-24422971D01*
X214111653Y-24422971D02*
X214040225Y-24280114D01*
X214040225Y-24280114D02*
X214040225Y-23851542D01*
X214040225Y-23851542D02*
X214111653Y-23708685D01*
X214111653Y-23708685D02*
X214183082Y-23637257D01*
X214183082Y-23637257D02*
X214325939Y-23565828D01*
X214325939Y-23565828D02*
X214540225Y-23565828D01*
X214540225Y-23565828D02*
X214683082Y-23637257D01*
X214683082Y-23637257D02*
X214754511Y-23708685D01*
X214754511Y-23708685D02*
X214825939Y-23851542D01*
X214825939Y-23851542D02*
X214825939Y-24280114D01*
X214825939Y-24280114D02*
X214754511Y-24422971D01*
X214754511Y-24422971D02*
X214683082Y-24494400D01*
X214683082Y-24494400D02*
X214540225Y-24565828D01*
X214540225Y-24565828D02*
X214325939Y-24565828D01*
X215468796Y-24565828D02*
X215468796Y-23565828D01*
X215468796Y-23708685D02*
X215540225Y-23637257D01*
X215540225Y-23637257D02*
X215683082Y-23565828D01*
X215683082Y-23565828D02*
X215897368Y-23565828D01*
X215897368Y-23565828D02*
X216040225Y-23637257D01*
X216040225Y-23637257D02*
X216111654Y-23780114D01*
X216111654Y-23780114D02*
X216111654Y-24565828D01*
X216111654Y-23780114D02*
X216183082Y-23637257D01*
X216183082Y-23637257D02*
X216325939Y-23565828D01*
X216325939Y-23565828D02*
X216540225Y-23565828D01*
X216540225Y-23565828D02*
X216683082Y-23637257D01*
X216683082Y-23637257D02*
X216754511Y-23780114D01*
X216754511Y-23780114D02*
X216754511Y-24565828D01*
X217468796Y-23565828D02*
X217468796Y-25065828D01*
X217468796Y-23637257D02*
X217611654Y-23565828D01*
X217611654Y-23565828D02*
X217897368Y-23565828D01*
X217897368Y-23565828D02*
X218040225Y-23637257D01*
X218040225Y-23637257D02*
X218111654Y-23708685D01*
X218111654Y-23708685D02*
X218183082Y-23851542D01*
X218183082Y-23851542D02*
X218183082Y-24280114D01*
X218183082Y-24280114D02*
X218111654Y-24422971D01*
X218111654Y-24422971D02*
X218040225Y-24494400D01*
X218040225Y-24494400D02*
X217897368Y-24565828D01*
X217897368Y-24565828D02*
X217611654Y-24565828D01*
X217611654Y-24565828D02*
X217468796Y-24494400D01*
X218754511Y-24494400D02*
X218897368Y-24565828D01*
X218897368Y-24565828D02*
X219183082Y-24565828D01*
X219183082Y-24565828D02*
X219325939Y-24494400D01*
X219325939Y-24494400D02*
X219397368Y-24351542D01*
X219397368Y-24351542D02*
X219397368Y-24280114D01*
X219397368Y-24280114D02*
X219325939Y-24137257D01*
X219325939Y-24137257D02*
X219183082Y-24065828D01*
X219183082Y-24065828D02*
X218968797Y-24065828D01*
X218968797Y-24065828D02*
X218825939Y-23994400D01*
X218825939Y-23994400D02*
X218754511Y-23851542D01*
X218754511Y-23851542D02*
X218754511Y-23780114D01*
X218754511Y-23780114D02*
X218825939Y-23637257D01*
X218825939Y-23637257D02*
X218968797Y-23565828D01*
X218968797Y-23565828D02*
X219183082Y-23565828D01*
X219183082Y-23565828D02*
X219325939Y-23637257D01*
X220254511Y-24565828D02*
X220111654Y-24494400D01*
X220111654Y-24494400D02*
X220040225Y-24422971D01*
X220040225Y-24422971D02*
X219968797Y-24280114D01*
X219968797Y-24280114D02*
X219968797Y-23851542D01*
X219968797Y-23851542D02*
X220040225Y-23708685D01*
X220040225Y-23708685D02*
X220111654Y-23637257D01*
X220111654Y-23637257D02*
X220254511Y-23565828D01*
X220254511Y-23565828D02*
X220468797Y-23565828D01*
X220468797Y-23565828D02*
X220611654Y-23637257D01*
X220611654Y-23637257D02*
X220683083Y-23708685D01*
X220683083Y-23708685D02*
X220754511Y-23851542D01*
X220754511Y-23851542D02*
X220754511Y-24280114D01*
X220754511Y-24280114D02*
X220683083Y-24422971D01*
X220683083Y-24422971D02*
X220611654Y-24494400D01*
X220611654Y-24494400D02*
X220468797Y-24565828D01*
X220468797Y-24565828D02*
X220254511Y-24565828D01*
X221397368Y-23565828D02*
X221397368Y-24565828D01*
X221397368Y-23708685D02*
X221468797Y-23637257D01*
X221468797Y-23637257D02*
X221611654Y-23565828D01*
X221611654Y-23565828D02*
X221825940Y-23565828D01*
X221825940Y-23565828D02*
X221968797Y-23637257D01*
X221968797Y-23637257D02*
X222040226Y-23780114D01*
X222040226Y-23780114D02*
X222040226Y-24565828D01*
X224754511Y-24565828D02*
X224254511Y-23851542D01*
X223897368Y-24565828D02*
X223897368Y-23065828D01*
X223897368Y-23065828D02*
X224468797Y-23065828D01*
X224468797Y-23065828D02*
X224611654Y-23137257D01*
X224611654Y-23137257D02*
X224683083Y-23208685D01*
X224683083Y-23208685D02*
X224754511Y-23351542D01*
X224754511Y-23351542D02*
X224754511Y-23565828D01*
X224754511Y-23565828D02*
X224683083Y-23708685D01*
X224683083Y-23708685D02*
X224611654Y-23780114D01*
X224611654Y-23780114D02*
X224468797Y-23851542D01*
X224468797Y-23851542D02*
X223897368Y-23851542D01*
X225397368Y-23780114D02*
X225897368Y-23780114D01*
X226111654Y-24565828D02*
X225397368Y-24565828D01*
X225397368Y-24565828D02*
X225397368Y-23065828D01*
X225397368Y-23065828D02*
X226111654Y-23065828D01*
X226540226Y-23065828D02*
X227040226Y-24565828D01*
X227040226Y-24565828D02*
X227540226Y-23065828D01*
X228040225Y-24422971D02*
X228111654Y-24494400D01*
X228111654Y-24494400D02*
X228040225Y-24565828D01*
X228040225Y-24565828D02*
X227968797Y-24494400D01*
X227968797Y-24494400D02*
X228040225Y-24422971D01*
X228040225Y-24422971D02*
X228040225Y-24565828D01*
X228040225Y-23637257D02*
X228111654Y-23708685D01*
X228111654Y-23708685D02*
X228040225Y-23780114D01*
X228040225Y-23780114D02*
X227968797Y-23708685D01*
X227968797Y-23708685D02*
X228040225Y-23637257D01*
X228040225Y-23637257D02*
X228040225Y-23780114D01*
X230683083Y-24565828D02*
X229825940Y-24565828D01*
X230254511Y-24565828D02*
X230254511Y-23065828D01*
X230254511Y-23065828D02*
X230111654Y-23280114D01*
X230111654Y-23280114D02*
X229968797Y-23422971D01*
X229968797Y-23422971D02*
X229825940Y-23494400D01*
X231325939Y-24422971D02*
X231397368Y-24494400D01*
X231397368Y-24494400D02*
X231325939Y-24565828D01*
X231325939Y-24565828D02*
X231254511Y-24494400D01*
X231254511Y-24494400D02*
X231325939Y-24422971D01*
X231325939Y-24422971D02*
X231325939Y-24565828D01*
X232325940Y-23065828D02*
X232468797Y-23065828D01*
X232468797Y-23065828D02*
X232611654Y-23137257D01*
X232611654Y-23137257D02*
X232683083Y-23208685D01*
X232683083Y-23208685D02*
X232754511Y-23351542D01*
X232754511Y-23351542D02*
X232825940Y-23637257D01*
X232825940Y-23637257D02*
X232825940Y-23994400D01*
X232825940Y-23994400D02*
X232754511Y-24280114D01*
X232754511Y-24280114D02*
X232683083Y-24422971D01*
X232683083Y-24422971D02*
X232611654Y-24494400D01*
X232611654Y-24494400D02*
X232468797Y-24565828D01*
X232468797Y-24565828D02*
X232325940Y-24565828D01*
X232325940Y-24565828D02*
X232183083Y-24494400D01*
X232183083Y-24494400D02*
X232111654Y-24422971D01*
X232111654Y-24422971D02*
X232040225Y-24280114D01*
X232040225Y-24280114D02*
X231968797Y-23994400D01*
X231968797Y-23994400D02*
X231968797Y-23637257D01*
X231968797Y-23637257D02*
X232040225Y-23351542D01*
X232040225Y-23351542D02*
X232111654Y-23208685D01*
X232111654Y-23208685D02*
X232183083Y-23137257D01*
X232183083Y-23137257D02*
X232325940Y-23065828D01*
X233468796Y-23994400D02*
X234611654Y-23994400D01*
X235254511Y-24137257D02*
X235968797Y-24137257D01*
X235111654Y-24565828D02*
X235611654Y-23065828D01*
X235611654Y-23065828D02*
X236111654Y-24565828D01*
D11*
X134304318Y-35967619D02*
X135332413Y-35967619D01*
X135332413Y-35967619D02*
X135453365Y-35907142D01*
X135453365Y-35907142D02*
X135513842Y-35846666D01*
X135513842Y-35846666D02*
X135574318Y-35725714D01*
X135574318Y-35725714D02*
X135574318Y-35483809D01*
X135574318Y-35483809D02*
X135513842Y-35362857D01*
X135513842Y-35362857D02*
X135453365Y-35302380D01*
X135453365Y-35302380D02*
X135332413Y-35241904D01*
X135332413Y-35241904D02*
X134304318Y-35241904D01*
X134425270Y-34697619D02*
X134364794Y-34637143D01*
X134364794Y-34637143D02*
X134304318Y-34516190D01*
X134304318Y-34516190D02*
X134304318Y-34213809D01*
X134304318Y-34213809D02*
X134364794Y-34092857D01*
X134364794Y-34092857D02*
X134425270Y-34032381D01*
X134425270Y-34032381D02*
X134546222Y-33971904D01*
X134546222Y-33971904D02*
X134667175Y-33971904D01*
X134667175Y-33971904D02*
X134848603Y-34032381D01*
X134848603Y-34032381D02*
X135574318Y-34758095D01*
X135574318Y-34758095D02*
X135574318Y-33971904D01*
D12*
X38914285Y-29309809D02*
X39057142Y-29357428D01*
X39057142Y-29357428D02*
X39104761Y-29405047D01*
X39104761Y-29405047D02*
X39152380Y-29500285D01*
X39152380Y-29500285D02*
X39152380Y-29643142D01*
X39152380Y-29643142D02*
X39104761Y-29738380D01*
X39104761Y-29738380D02*
X39057142Y-29786000D01*
X39057142Y-29786000D02*
X38961904Y-29833619D01*
X38961904Y-29833619D02*
X38580952Y-29833619D01*
X38580952Y-29833619D02*
X38580952Y-28833619D01*
X38580952Y-28833619D02*
X38914285Y-28833619D01*
X38914285Y-28833619D02*
X39009523Y-28881238D01*
X39009523Y-28881238D02*
X39057142Y-28928857D01*
X39057142Y-28928857D02*
X39104761Y-29024095D01*
X39104761Y-29024095D02*
X39104761Y-29119333D01*
X39104761Y-29119333D02*
X39057142Y-29214571D01*
X39057142Y-29214571D02*
X39009523Y-29262190D01*
X39009523Y-29262190D02*
X38914285Y-29309809D01*
X38914285Y-29309809D02*
X38580952Y-29309809D01*
X39438095Y-28833619D02*
X40009523Y-28833619D01*
X39723809Y-29833619D02*
X39723809Y-28833619D01*
X40295238Y-28928857D02*
X40342857Y-28881238D01*
X40342857Y-28881238D02*
X40438095Y-28833619D01*
X40438095Y-28833619D02*
X40676190Y-28833619D01*
X40676190Y-28833619D02*
X40771428Y-28881238D01*
X40771428Y-28881238D02*
X40819047Y-28928857D01*
X40819047Y-28928857D02*
X40866666Y-29024095D01*
X40866666Y-29024095D02*
X40866666Y-29119333D01*
X40866666Y-29119333D02*
X40819047Y-29262190D01*
X40819047Y-29262190D02*
X40247619Y-29833619D01*
X40247619Y-29833619D02*
X40866666Y-29833619D01*
D13*
X229537380Y-55827242D02*
X229537380Y-54557242D01*
X229537380Y-54557242D02*
X230263095Y-55827242D01*
X230263095Y-55827242D02*
X230263095Y-54557242D01*
X230746904Y-54557242D02*
X231593571Y-54557242D01*
X231593571Y-54557242D02*
X231049285Y-55827242D01*
X159032380Y-55332242D02*
X159032380Y-54062242D01*
X159032380Y-54062242D02*
X159758095Y-55332242D01*
X159758095Y-55332242D02*
X159758095Y-54062242D01*
X160241904Y-54062242D02*
X161028095Y-54062242D01*
X161028095Y-54062242D02*
X160604761Y-54546051D01*
X160604761Y-54546051D02*
X160786190Y-54546051D01*
X160786190Y-54546051D02*
X160907142Y-54606527D01*
X160907142Y-54606527D02*
X160967618Y-54667004D01*
X160967618Y-54667004D02*
X161028095Y-54787956D01*
X161028095Y-54787956D02*
X161028095Y-55090337D01*
X161028095Y-55090337D02*
X160967618Y-55211289D01*
X160967618Y-55211289D02*
X160907142Y-55271766D01*
X160907142Y-55271766D02*
X160786190Y-55332242D01*
X160786190Y-55332242D02*
X160423333Y-55332242D01*
X160423333Y-55332242D02*
X160302380Y-55271766D01*
X160302380Y-55271766D02*
X160241904Y-55211289D01*
D12*
X219833333Y-63954819D02*
X219500000Y-63478628D01*
X219261905Y-63954819D02*
X219261905Y-62954819D01*
X219261905Y-62954819D02*
X219642857Y-62954819D01*
X219642857Y-62954819D02*
X219738095Y-63002438D01*
X219738095Y-63002438D02*
X219785714Y-63050057D01*
X219785714Y-63050057D02*
X219833333Y-63145295D01*
X219833333Y-63145295D02*
X219833333Y-63288152D01*
X219833333Y-63288152D02*
X219785714Y-63383390D01*
X219785714Y-63383390D02*
X219738095Y-63431009D01*
X219738095Y-63431009D02*
X219642857Y-63478628D01*
X219642857Y-63478628D02*
X219261905Y-63478628D01*
X220404762Y-63383390D02*
X220309524Y-63335771D01*
X220309524Y-63335771D02*
X220261905Y-63288152D01*
X220261905Y-63288152D02*
X220214286Y-63192914D01*
X220214286Y-63192914D02*
X220214286Y-63145295D01*
X220214286Y-63145295D02*
X220261905Y-63050057D01*
X220261905Y-63050057D02*
X220309524Y-63002438D01*
X220309524Y-63002438D02*
X220404762Y-62954819D01*
X220404762Y-62954819D02*
X220595238Y-62954819D01*
X220595238Y-62954819D02*
X220690476Y-63002438D01*
X220690476Y-63002438D02*
X220738095Y-63050057D01*
X220738095Y-63050057D02*
X220785714Y-63145295D01*
X220785714Y-63145295D02*
X220785714Y-63192914D01*
X220785714Y-63192914D02*
X220738095Y-63288152D01*
X220738095Y-63288152D02*
X220690476Y-63335771D01*
X220690476Y-63335771D02*
X220595238Y-63383390D01*
X220595238Y-63383390D02*
X220404762Y-63383390D01*
X220404762Y-63383390D02*
X220309524Y-63431009D01*
X220309524Y-63431009D02*
X220261905Y-63478628D01*
X220261905Y-63478628D02*
X220214286Y-63573866D01*
X220214286Y-63573866D02*
X220214286Y-63764342D01*
X220214286Y-63764342D02*
X220261905Y-63859580D01*
X220261905Y-63859580D02*
X220309524Y-63907200D01*
X220309524Y-63907200D02*
X220404762Y-63954819D01*
X220404762Y-63954819D02*
X220595238Y-63954819D01*
X220595238Y-63954819D02*
X220690476Y-63907200D01*
X220690476Y-63907200D02*
X220738095Y-63859580D01*
X220738095Y-63859580D02*
X220785714Y-63764342D01*
X220785714Y-63764342D02*
X220785714Y-63573866D01*
X220785714Y-63573866D02*
X220738095Y-63478628D01*
X220738095Y-63478628D02*
X220690476Y-63431009D01*
X220690476Y-63431009D02*
X220595238Y-63383390D01*
D13*
X109032380Y-55332242D02*
X109032380Y-54062242D01*
X109032380Y-54062242D02*
X109758095Y-55332242D01*
X109758095Y-55332242D02*
X109758095Y-54062242D01*
X111028095Y-55332242D02*
X110302380Y-55332242D01*
X110665237Y-55332242D02*
X110665237Y-54062242D01*
X110665237Y-54062242D02*
X110544285Y-54243670D01*
X110544285Y-54243670D02*
X110423333Y-54364623D01*
X110423333Y-54364623D02*
X110302380Y-54425099D01*
D12*
X194247142Y-63484819D02*
X193913809Y-63008628D01*
X193675714Y-63484819D02*
X193675714Y-62484819D01*
X193675714Y-62484819D02*
X194056666Y-62484819D01*
X194056666Y-62484819D02*
X194151904Y-62532438D01*
X194151904Y-62532438D02*
X194199523Y-62580057D01*
X194199523Y-62580057D02*
X194247142Y-62675295D01*
X194247142Y-62675295D02*
X194247142Y-62818152D01*
X194247142Y-62818152D02*
X194199523Y-62913390D01*
X194199523Y-62913390D02*
X194151904Y-62961009D01*
X194151904Y-62961009D02*
X194056666Y-63008628D01*
X194056666Y-63008628D02*
X193675714Y-63008628D01*
X195199523Y-63484819D02*
X194628095Y-63484819D01*
X194913809Y-63484819D02*
X194913809Y-62484819D01*
X194913809Y-62484819D02*
X194818571Y-62627676D01*
X194818571Y-62627676D02*
X194723333Y-62722914D01*
X194723333Y-62722914D02*
X194628095Y-62770533D01*
X196151904Y-63484819D02*
X195580476Y-63484819D01*
X195866190Y-63484819D02*
X195866190Y-62484819D01*
X195866190Y-62484819D02*
X195770952Y-62627676D01*
X195770952Y-62627676D02*
X195675714Y-62722914D01*
X195675714Y-62722914D02*
X195580476Y-62770533D01*
X201763333Y-63319819D02*
X201430000Y-62843628D01*
X201191905Y-63319819D02*
X201191905Y-62319819D01*
X201191905Y-62319819D02*
X201572857Y-62319819D01*
X201572857Y-62319819D02*
X201668095Y-62367438D01*
X201668095Y-62367438D02*
X201715714Y-62415057D01*
X201715714Y-62415057D02*
X201763333Y-62510295D01*
X201763333Y-62510295D02*
X201763333Y-62653152D01*
X201763333Y-62653152D02*
X201715714Y-62748390D01*
X201715714Y-62748390D02*
X201668095Y-62796009D01*
X201668095Y-62796009D02*
X201572857Y-62843628D01*
X201572857Y-62843628D02*
X201191905Y-62843628D01*
X202239524Y-63319819D02*
X202430000Y-63319819D01*
X202430000Y-63319819D02*
X202525238Y-63272200D01*
X202525238Y-63272200D02*
X202572857Y-63224580D01*
X202572857Y-63224580D02*
X202668095Y-63081723D01*
X202668095Y-63081723D02*
X202715714Y-62891247D01*
X202715714Y-62891247D02*
X202715714Y-62510295D01*
X202715714Y-62510295D02*
X202668095Y-62415057D01*
X202668095Y-62415057D02*
X202620476Y-62367438D01*
X202620476Y-62367438D02*
X202525238Y-62319819D01*
X202525238Y-62319819D02*
X202334762Y-62319819D01*
X202334762Y-62319819D02*
X202239524Y-62367438D01*
X202239524Y-62367438D02*
X202191905Y-62415057D01*
X202191905Y-62415057D02*
X202144286Y-62510295D01*
X202144286Y-62510295D02*
X202144286Y-62748390D01*
X202144286Y-62748390D02*
X202191905Y-62843628D01*
X202191905Y-62843628D02*
X202239524Y-62891247D01*
X202239524Y-62891247D02*
X202334762Y-62938866D01*
X202334762Y-62938866D02*
X202525238Y-62938866D01*
X202525238Y-62938866D02*
X202620476Y-62891247D01*
X202620476Y-62891247D02*
X202668095Y-62843628D01*
X202668095Y-62843628D02*
X202715714Y-62748390D01*
X96031665Y-30252200D02*
X96174522Y-30299819D01*
X96174522Y-30299819D02*
X96412617Y-30299819D01*
X96412617Y-30299819D02*
X96507855Y-30252200D01*
X96507855Y-30252200D02*
X96555474Y-30204580D01*
X96555474Y-30204580D02*
X96603093Y-30109342D01*
X96603093Y-30109342D02*
X96603093Y-30014104D01*
X96603093Y-30014104D02*
X96555474Y-29918866D01*
X96555474Y-29918866D02*
X96507855Y-29871247D01*
X96507855Y-29871247D02*
X96412617Y-29823628D01*
X96412617Y-29823628D02*
X96222141Y-29776009D01*
X96222141Y-29776009D02*
X96126903Y-29728390D01*
X96126903Y-29728390D02*
X96079284Y-29680771D01*
X96079284Y-29680771D02*
X96031665Y-29585533D01*
X96031665Y-29585533D02*
X96031665Y-29490295D01*
X96031665Y-29490295D02*
X96079284Y-29395057D01*
X96079284Y-29395057D02*
X96126903Y-29347438D01*
X96126903Y-29347438D02*
X96222141Y-29299819D01*
X96222141Y-29299819D02*
X96460236Y-29299819D01*
X96460236Y-29299819D02*
X96603093Y-29347438D01*
X96936427Y-29299819D02*
X97174522Y-30299819D01*
X97174522Y-30299819D02*
X97364998Y-29585533D01*
X97364998Y-29585533D02*
X97555474Y-30299819D01*
X97555474Y-30299819D02*
X97793570Y-29299819D01*
X98603093Y-29299819D02*
X98412617Y-29299819D01*
X98412617Y-29299819D02*
X98317379Y-29347438D01*
X98317379Y-29347438D02*
X98269760Y-29395057D01*
X98269760Y-29395057D02*
X98174522Y-29537914D01*
X98174522Y-29537914D02*
X98126903Y-29728390D01*
X98126903Y-29728390D02*
X98126903Y-30109342D01*
X98126903Y-30109342D02*
X98174522Y-30204580D01*
X98174522Y-30204580D02*
X98222141Y-30252200D01*
X98222141Y-30252200D02*
X98317379Y-30299819D01*
X98317379Y-30299819D02*
X98507855Y-30299819D01*
X98507855Y-30299819D02*
X98603093Y-30252200D01*
X98603093Y-30252200D02*
X98650712Y-30204580D01*
X98650712Y-30204580D02*
X98698331Y-30109342D01*
X98698331Y-30109342D02*
X98698331Y-29871247D01*
X98698331Y-29871247D02*
X98650712Y-29776009D01*
X98650712Y-29776009D02*
X98603093Y-29728390D01*
X98603093Y-29728390D02*
X98507855Y-29680771D01*
X98507855Y-29680771D02*
X98317379Y-29680771D01*
X98317379Y-29680771D02*
X98222141Y-29728390D01*
X98222141Y-29728390D02*
X98174522Y-29776009D01*
X98174522Y-29776009D02*
X98126903Y-29871247D01*
D13*
X129032380Y-55192242D02*
X129032380Y-53922242D01*
X129032380Y-53922242D02*
X129758095Y-55192242D01*
X129758095Y-55192242D02*
X129758095Y-53922242D01*
X130302380Y-54043194D02*
X130362856Y-53982718D01*
X130362856Y-53982718D02*
X130483809Y-53922242D01*
X130483809Y-53922242D02*
X130786190Y-53922242D01*
X130786190Y-53922242D02*
X130907142Y-53982718D01*
X130907142Y-53982718D02*
X130967618Y-54043194D01*
X130967618Y-54043194D02*
X131028095Y-54164146D01*
X131028095Y-54164146D02*
X131028095Y-54285099D01*
X131028095Y-54285099D02*
X130967618Y-54466527D01*
X130967618Y-54466527D02*
X130241904Y-55192242D01*
X130241904Y-55192242D02*
X131028095Y-55192242D01*
D12*
X190357142Y-63319819D02*
X190023809Y-62843628D01*
X189785714Y-63319819D02*
X189785714Y-62319819D01*
X189785714Y-62319819D02*
X190166666Y-62319819D01*
X190166666Y-62319819D02*
X190261904Y-62367438D01*
X190261904Y-62367438D02*
X190309523Y-62415057D01*
X190309523Y-62415057D02*
X190357142Y-62510295D01*
X190357142Y-62510295D02*
X190357142Y-62653152D01*
X190357142Y-62653152D02*
X190309523Y-62748390D01*
X190309523Y-62748390D02*
X190261904Y-62796009D01*
X190261904Y-62796009D02*
X190166666Y-62843628D01*
X190166666Y-62843628D02*
X189785714Y-62843628D01*
X191309523Y-63319819D02*
X190738095Y-63319819D01*
X191023809Y-63319819D02*
X191023809Y-62319819D01*
X191023809Y-62319819D02*
X190928571Y-62462676D01*
X190928571Y-62462676D02*
X190833333Y-62557914D01*
X190833333Y-62557914D02*
X190738095Y-62605533D01*
X191928571Y-62319819D02*
X192023809Y-62319819D01*
X192023809Y-62319819D02*
X192119047Y-62367438D01*
X192119047Y-62367438D02*
X192166666Y-62415057D01*
X192166666Y-62415057D02*
X192214285Y-62510295D01*
X192214285Y-62510295D02*
X192261904Y-62700771D01*
X192261904Y-62700771D02*
X192261904Y-62938866D01*
X192261904Y-62938866D02*
X192214285Y-63129342D01*
X192214285Y-63129342D02*
X192166666Y-63224580D01*
X192166666Y-63224580D02*
X192119047Y-63272200D01*
X192119047Y-63272200D02*
X192023809Y-63319819D01*
X192023809Y-63319819D02*
X191928571Y-63319819D01*
X191928571Y-63319819D02*
X191833333Y-63272200D01*
X191833333Y-63272200D02*
X191785714Y-63224580D01*
X191785714Y-63224580D02*
X191738095Y-63129342D01*
X191738095Y-63129342D02*
X191690476Y-62938866D01*
X191690476Y-62938866D02*
X191690476Y-62700771D01*
X191690476Y-62700771D02*
X191738095Y-62510295D01*
X191738095Y-62510295D02*
X191785714Y-62415057D01*
X191785714Y-62415057D02*
X191833333Y-62367438D01*
X191833333Y-62367438D02*
X191928571Y-62319819D01*
X149833333Y-65504819D02*
X149500000Y-65028628D01*
X149261905Y-65504819D02*
X149261905Y-64504819D01*
X149261905Y-64504819D02*
X149642857Y-64504819D01*
X149642857Y-64504819D02*
X149738095Y-64552438D01*
X149738095Y-64552438D02*
X149785714Y-64600057D01*
X149785714Y-64600057D02*
X149833333Y-64695295D01*
X149833333Y-64695295D02*
X149833333Y-64838152D01*
X149833333Y-64838152D02*
X149785714Y-64933390D01*
X149785714Y-64933390D02*
X149738095Y-64981009D01*
X149738095Y-64981009D02*
X149642857Y-65028628D01*
X149642857Y-65028628D02*
X149261905Y-65028628D01*
X150738095Y-64504819D02*
X150261905Y-64504819D01*
X150261905Y-64504819D02*
X150214286Y-64981009D01*
X150214286Y-64981009D02*
X150261905Y-64933390D01*
X150261905Y-64933390D02*
X150357143Y-64885771D01*
X150357143Y-64885771D02*
X150595238Y-64885771D01*
X150595238Y-64885771D02*
X150690476Y-64933390D01*
X150690476Y-64933390D02*
X150738095Y-64981009D01*
X150738095Y-64981009D02*
X150785714Y-65076247D01*
X150785714Y-65076247D02*
X150785714Y-65314342D01*
X150785714Y-65314342D02*
X150738095Y-65409580D01*
X150738095Y-65409580D02*
X150690476Y-65457200D01*
X150690476Y-65457200D02*
X150595238Y-65504819D01*
X150595238Y-65504819D02*
X150357143Y-65504819D01*
X150357143Y-65504819D02*
X150261905Y-65457200D01*
X150261905Y-65457200D02*
X150214286Y-65409580D01*
X69939819Y-43306904D02*
X70749342Y-43306904D01*
X70749342Y-43306904D02*
X70844580Y-43259285D01*
X70844580Y-43259285D02*
X70892200Y-43211666D01*
X70892200Y-43211666D02*
X70939819Y-43116428D01*
X70939819Y-43116428D02*
X70939819Y-42925952D01*
X70939819Y-42925952D02*
X70892200Y-42830714D01*
X70892200Y-42830714D02*
X70844580Y-42783095D01*
X70844580Y-42783095D02*
X70749342Y-42735476D01*
X70749342Y-42735476D02*
X69939819Y-42735476D01*
X70939819Y-41735476D02*
X70939819Y-42306904D01*
X70939819Y-42021190D02*
X69939819Y-42021190D01*
X69939819Y-42021190D02*
X70082676Y-42116428D01*
X70082676Y-42116428D02*
X70177914Y-42211666D01*
X70177914Y-42211666D02*
X70225533Y-42306904D01*
X63859580Y-49061666D02*
X63907200Y-49109285D01*
X63907200Y-49109285D02*
X63954819Y-49252142D01*
X63954819Y-49252142D02*
X63954819Y-49347380D01*
X63954819Y-49347380D02*
X63907200Y-49490237D01*
X63907200Y-49490237D02*
X63811961Y-49585475D01*
X63811961Y-49585475D02*
X63716723Y-49633094D01*
X63716723Y-49633094D02*
X63526247Y-49680713D01*
X63526247Y-49680713D02*
X63383390Y-49680713D01*
X63383390Y-49680713D02*
X63192914Y-49633094D01*
X63192914Y-49633094D02*
X63097676Y-49585475D01*
X63097676Y-49585475D02*
X63002438Y-49490237D01*
X63002438Y-49490237D02*
X62954819Y-49347380D01*
X62954819Y-49347380D02*
X62954819Y-49252142D01*
X62954819Y-49252142D02*
X63002438Y-49109285D01*
X63002438Y-49109285D02*
X63050057Y-49061666D01*
X62954819Y-48204523D02*
X62954819Y-48394999D01*
X62954819Y-48394999D02*
X63002438Y-48490237D01*
X63002438Y-48490237D02*
X63050057Y-48537856D01*
X63050057Y-48537856D02*
X63192914Y-48633094D01*
X63192914Y-48633094D02*
X63383390Y-48680713D01*
X63383390Y-48680713D02*
X63764342Y-48680713D01*
X63764342Y-48680713D02*
X63859580Y-48633094D01*
X63859580Y-48633094D02*
X63907200Y-48585475D01*
X63907200Y-48585475D02*
X63954819Y-48490237D01*
X63954819Y-48490237D02*
X63954819Y-48299761D01*
X63954819Y-48299761D02*
X63907200Y-48204523D01*
X63907200Y-48204523D02*
X63859580Y-48156904D01*
X63859580Y-48156904D02*
X63764342Y-48109285D01*
X63764342Y-48109285D02*
X63526247Y-48109285D01*
X63526247Y-48109285D02*
X63431009Y-48156904D01*
X63431009Y-48156904D02*
X63383390Y-48204523D01*
X63383390Y-48204523D02*
X63335771Y-48299761D01*
X63335771Y-48299761D02*
X63335771Y-48490237D01*
X63335771Y-48490237D02*
X63383390Y-48585475D01*
X63383390Y-48585475D02*
X63431009Y-48633094D01*
X63431009Y-48633094D02*
X63526247Y-48680713D01*
X141833333Y-65859819D02*
X141500000Y-65383628D01*
X141261905Y-65859819D02*
X141261905Y-64859819D01*
X141261905Y-64859819D02*
X141642857Y-64859819D01*
X141642857Y-64859819D02*
X141738095Y-64907438D01*
X141738095Y-64907438D02*
X141785714Y-64955057D01*
X141785714Y-64955057D02*
X141833333Y-65050295D01*
X141833333Y-65050295D02*
X141833333Y-65193152D01*
X141833333Y-65193152D02*
X141785714Y-65288390D01*
X141785714Y-65288390D02*
X141738095Y-65336009D01*
X141738095Y-65336009D02*
X141642857Y-65383628D01*
X141642857Y-65383628D02*
X141261905Y-65383628D01*
X142690476Y-65193152D02*
X142690476Y-65859819D01*
X142452381Y-64812200D02*
X142214286Y-65526485D01*
X142214286Y-65526485D02*
X142833333Y-65526485D01*
D13*
X209032380Y-55827242D02*
X209032380Y-54557242D01*
X209032380Y-54557242D02*
X209758095Y-55827242D01*
X209758095Y-55827242D02*
X209758095Y-54557242D01*
X210907142Y-54557242D02*
X210665237Y-54557242D01*
X210665237Y-54557242D02*
X210544285Y-54617718D01*
X210544285Y-54617718D02*
X210483809Y-54678194D01*
X210483809Y-54678194D02*
X210362856Y-54859623D01*
X210362856Y-54859623D02*
X210302380Y-55101527D01*
X210302380Y-55101527D02*
X210302380Y-55585337D01*
X210302380Y-55585337D02*
X210362856Y-55706289D01*
X210362856Y-55706289D02*
X210423333Y-55766766D01*
X210423333Y-55766766D02*
X210544285Y-55827242D01*
X210544285Y-55827242D02*
X210786190Y-55827242D01*
X210786190Y-55827242D02*
X210907142Y-55766766D01*
X210907142Y-55766766D02*
X210967618Y-55706289D01*
X210967618Y-55706289D02*
X211028095Y-55585337D01*
X211028095Y-55585337D02*
X211028095Y-55282956D01*
X211028095Y-55282956D02*
X210967618Y-55162004D01*
X210967618Y-55162004D02*
X210907142Y-55101527D01*
X210907142Y-55101527D02*
X210786190Y-55041051D01*
X210786190Y-55041051D02*
X210544285Y-55041051D01*
X210544285Y-55041051D02*
X210423333Y-55101527D01*
X210423333Y-55101527D02*
X210362856Y-55162004D01*
X210362856Y-55162004D02*
X210302380Y-55282956D01*
D12*
X116673333Y-63319819D02*
X116340000Y-62843628D01*
X116101905Y-63319819D02*
X116101905Y-62319819D01*
X116101905Y-62319819D02*
X116482857Y-62319819D01*
X116482857Y-62319819D02*
X116578095Y-62367438D01*
X116578095Y-62367438D02*
X116625714Y-62415057D01*
X116625714Y-62415057D02*
X116673333Y-62510295D01*
X116673333Y-62510295D02*
X116673333Y-62653152D01*
X116673333Y-62653152D02*
X116625714Y-62748390D01*
X116625714Y-62748390D02*
X116578095Y-62796009D01*
X116578095Y-62796009D02*
X116482857Y-62843628D01*
X116482857Y-62843628D02*
X116101905Y-62843628D01*
X117006667Y-62319819D02*
X117673333Y-62319819D01*
X117673333Y-62319819D02*
X117244762Y-63319819D01*
D11*
X202867380Y-33594318D02*
X202867380Y-34622413D01*
X202867380Y-34622413D02*
X202927857Y-34743365D01*
X202927857Y-34743365D02*
X202988333Y-34803842D01*
X202988333Y-34803842D02*
X203109285Y-34864318D01*
X203109285Y-34864318D02*
X203351190Y-34864318D01*
X203351190Y-34864318D02*
X203472142Y-34803842D01*
X203472142Y-34803842D02*
X203532619Y-34743365D01*
X203532619Y-34743365D02*
X203593095Y-34622413D01*
X203593095Y-34622413D02*
X203593095Y-33594318D01*
X204076904Y-33594318D02*
X204863095Y-33594318D01*
X204863095Y-33594318D02*
X204439761Y-34078127D01*
X204439761Y-34078127D02*
X204621190Y-34078127D01*
X204621190Y-34078127D02*
X204742142Y-34138603D01*
X204742142Y-34138603D02*
X204802618Y-34199080D01*
X204802618Y-34199080D02*
X204863095Y-34320032D01*
X204863095Y-34320032D02*
X204863095Y-34622413D01*
X204863095Y-34622413D02*
X204802618Y-34743365D01*
X204802618Y-34743365D02*
X204742142Y-34803842D01*
X204742142Y-34803842D02*
X204621190Y-34864318D01*
X204621190Y-34864318D02*
X204258333Y-34864318D01*
X204258333Y-34864318D02*
X204137380Y-34803842D01*
X204137380Y-34803842D02*
X204076904Y-34743365D01*
D12*
X94057333Y-35952580D02*
X94009714Y-36000200D01*
X94009714Y-36000200D02*
X93866857Y-36047819D01*
X93866857Y-36047819D02*
X93771619Y-36047819D01*
X93771619Y-36047819D02*
X93628762Y-36000200D01*
X93628762Y-36000200D02*
X93533524Y-35904961D01*
X93533524Y-35904961D02*
X93485905Y-35809723D01*
X93485905Y-35809723D02*
X93438286Y-35619247D01*
X93438286Y-35619247D02*
X93438286Y-35476390D01*
X93438286Y-35476390D02*
X93485905Y-35285914D01*
X93485905Y-35285914D02*
X93533524Y-35190676D01*
X93533524Y-35190676D02*
X93628762Y-35095438D01*
X93628762Y-35095438D02*
X93771619Y-35047819D01*
X93771619Y-35047819D02*
X93866857Y-35047819D01*
X93866857Y-35047819D02*
X94009714Y-35095438D01*
X94009714Y-35095438D02*
X94057333Y-35143057D01*
X94962095Y-35047819D02*
X94485905Y-35047819D01*
X94485905Y-35047819D02*
X94438286Y-35524009D01*
X94438286Y-35524009D02*
X94485905Y-35476390D01*
X94485905Y-35476390D02*
X94581143Y-35428771D01*
X94581143Y-35428771D02*
X94819238Y-35428771D01*
X94819238Y-35428771D02*
X94914476Y-35476390D01*
X94914476Y-35476390D02*
X94962095Y-35524009D01*
X94962095Y-35524009D02*
X95009714Y-35619247D01*
X95009714Y-35619247D02*
X95009714Y-35857342D01*
X95009714Y-35857342D02*
X94962095Y-35952580D01*
X94962095Y-35952580D02*
X94914476Y-36000200D01*
X94914476Y-36000200D02*
X94819238Y-36047819D01*
X94819238Y-36047819D02*
X94581143Y-36047819D01*
X94581143Y-36047819D02*
X94485905Y-36000200D01*
X94485905Y-36000200D02*
X94438286Y-35952580D01*
D13*
X179032380Y-55332242D02*
X179032380Y-54062242D01*
X179032380Y-54062242D02*
X179758095Y-55332242D01*
X179758095Y-55332242D02*
X179758095Y-54062242D01*
X180967618Y-54062242D02*
X180362856Y-54062242D01*
X180362856Y-54062242D02*
X180302380Y-54667004D01*
X180302380Y-54667004D02*
X180362856Y-54606527D01*
X180362856Y-54606527D02*
X180483809Y-54546051D01*
X180483809Y-54546051D02*
X180786190Y-54546051D01*
X180786190Y-54546051D02*
X180907142Y-54606527D01*
X180907142Y-54606527D02*
X180967618Y-54667004D01*
X180967618Y-54667004D02*
X181028095Y-54787956D01*
X181028095Y-54787956D02*
X181028095Y-55090337D01*
X181028095Y-55090337D02*
X180967618Y-55211289D01*
X180967618Y-55211289D02*
X180907142Y-55271766D01*
X180907142Y-55271766D02*
X180786190Y-55332242D01*
X180786190Y-55332242D02*
X180483809Y-55332242D01*
X180483809Y-55332242D02*
X180362856Y-55271766D01*
X180362856Y-55271766D02*
X180302380Y-55211289D01*
D12*
X78855667Y-30252200D02*
X78998524Y-30299819D01*
X78998524Y-30299819D02*
X79236619Y-30299819D01*
X79236619Y-30299819D02*
X79331857Y-30252200D01*
X79331857Y-30252200D02*
X79379476Y-30204580D01*
X79379476Y-30204580D02*
X79427095Y-30109342D01*
X79427095Y-30109342D02*
X79427095Y-30014104D01*
X79427095Y-30014104D02*
X79379476Y-29918866D01*
X79379476Y-29918866D02*
X79331857Y-29871247D01*
X79331857Y-29871247D02*
X79236619Y-29823628D01*
X79236619Y-29823628D02*
X79046143Y-29776009D01*
X79046143Y-29776009D02*
X78950905Y-29728390D01*
X78950905Y-29728390D02*
X78903286Y-29680771D01*
X78903286Y-29680771D02*
X78855667Y-29585533D01*
X78855667Y-29585533D02*
X78855667Y-29490295D01*
X78855667Y-29490295D02*
X78903286Y-29395057D01*
X78903286Y-29395057D02*
X78950905Y-29347438D01*
X78950905Y-29347438D02*
X79046143Y-29299819D01*
X79046143Y-29299819D02*
X79284238Y-29299819D01*
X79284238Y-29299819D02*
X79427095Y-29347438D01*
X79760429Y-29299819D02*
X79998524Y-30299819D01*
X79998524Y-30299819D02*
X80189000Y-29585533D01*
X80189000Y-29585533D02*
X80379476Y-30299819D01*
X80379476Y-30299819D02*
X80617572Y-29299819D01*
X81427095Y-29633152D02*
X81427095Y-30299819D01*
X81189000Y-29252200D02*
X80950905Y-29966485D01*
X80950905Y-29966485D02*
X81569952Y-29966485D01*
X122833333Y-63319819D02*
X122500000Y-62843628D01*
X122261905Y-63319819D02*
X122261905Y-62319819D01*
X122261905Y-62319819D02*
X122642857Y-62319819D01*
X122642857Y-62319819D02*
X122738095Y-62367438D01*
X122738095Y-62367438D02*
X122785714Y-62415057D01*
X122785714Y-62415057D02*
X122833333Y-62510295D01*
X122833333Y-62510295D02*
X122833333Y-62653152D01*
X122833333Y-62653152D02*
X122785714Y-62748390D01*
X122785714Y-62748390D02*
X122738095Y-62796009D01*
X122738095Y-62796009D02*
X122642857Y-62843628D01*
X122642857Y-62843628D02*
X122261905Y-62843628D01*
X123690476Y-62319819D02*
X123500000Y-62319819D01*
X123500000Y-62319819D02*
X123404762Y-62367438D01*
X123404762Y-62367438D02*
X123357143Y-62415057D01*
X123357143Y-62415057D02*
X123261905Y-62557914D01*
X123261905Y-62557914D02*
X123214286Y-62748390D01*
X123214286Y-62748390D02*
X123214286Y-63129342D01*
X123214286Y-63129342D02*
X123261905Y-63224580D01*
X123261905Y-63224580D02*
X123309524Y-63272200D01*
X123309524Y-63272200D02*
X123404762Y-63319819D01*
X123404762Y-63319819D02*
X123595238Y-63319819D01*
X123595238Y-63319819D02*
X123690476Y-63272200D01*
X123690476Y-63272200D02*
X123738095Y-63224580D01*
X123738095Y-63224580D02*
X123785714Y-63129342D01*
X123785714Y-63129342D02*
X123785714Y-62891247D01*
X123785714Y-62891247D02*
X123738095Y-62796009D01*
X123738095Y-62796009D02*
X123690476Y-62748390D01*
X123690476Y-62748390D02*
X123595238Y-62700771D01*
X123595238Y-62700771D02*
X123404762Y-62700771D01*
X123404762Y-62700771D02*
X123309524Y-62748390D01*
X123309524Y-62748390D02*
X123261905Y-62796009D01*
X123261905Y-62796009D02*
X123214286Y-62891247D01*
X87443666Y-30252200D02*
X87586523Y-30299819D01*
X87586523Y-30299819D02*
X87824618Y-30299819D01*
X87824618Y-30299819D02*
X87919856Y-30252200D01*
X87919856Y-30252200D02*
X87967475Y-30204580D01*
X87967475Y-30204580D02*
X88015094Y-30109342D01*
X88015094Y-30109342D02*
X88015094Y-30014104D01*
X88015094Y-30014104D02*
X87967475Y-29918866D01*
X87967475Y-29918866D02*
X87919856Y-29871247D01*
X87919856Y-29871247D02*
X87824618Y-29823628D01*
X87824618Y-29823628D02*
X87634142Y-29776009D01*
X87634142Y-29776009D02*
X87538904Y-29728390D01*
X87538904Y-29728390D02*
X87491285Y-29680771D01*
X87491285Y-29680771D02*
X87443666Y-29585533D01*
X87443666Y-29585533D02*
X87443666Y-29490295D01*
X87443666Y-29490295D02*
X87491285Y-29395057D01*
X87491285Y-29395057D02*
X87538904Y-29347438D01*
X87538904Y-29347438D02*
X87634142Y-29299819D01*
X87634142Y-29299819D02*
X87872237Y-29299819D01*
X87872237Y-29299819D02*
X88015094Y-29347438D01*
X88348428Y-29299819D02*
X88586523Y-30299819D01*
X88586523Y-30299819D02*
X88776999Y-29585533D01*
X88776999Y-29585533D02*
X88967475Y-30299819D01*
X88967475Y-30299819D02*
X89205571Y-29299819D01*
X90062713Y-29299819D02*
X89586523Y-29299819D01*
X89586523Y-29299819D02*
X89538904Y-29776009D01*
X89538904Y-29776009D02*
X89586523Y-29728390D01*
X89586523Y-29728390D02*
X89681761Y-29680771D01*
X89681761Y-29680771D02*
X89919856Y-29680771D01*
X89919856Y-29680771D02*
X90015094Y-29728390D01*
X90015094Y-29728390D02*
X90062713Y-29776009D01*
X90062713Y-29776009D02*
X90110332Y-29871247D01*
X90110332Y-29871247D02*
X90110332Y-30109342D01*
X90110332Y-30109342D02*
X90062713Y-30204580D01*
X90062713Y-30204580D02*
X90015094Y-30252200D01*
X90015094Y-30252200D02*
X89919856Y-30299819D01*
X89919856Y-30299819D02*
X89681761Y-30299819D01*
X89681761Y-30299819D02*
X89586523Y-30252200D01*
X89586523Y-30252200D02*
X89538904Y-30204580D01*
X103084333Y-35952580D02*
X103036714Y-36000200D01*
X103036714Y-36000200D02*
X102893857Y-36047819D01*
X102893857Y-36047819D02*
X102798619Y-36047819D01*
X102798619Y-36047819D02*
X102655762Y-36000200D01*
X102655762Y-36000200D02*
X102560524Y-35904961D01*
X102560524Y-35904961D02*
X102512905Y-35809723D01*
X102512905Y-35809723D02*
X102465286Y-35619247D01*
X102465286Y-35619247D02*
X102465286Y-35476390D01*
X102465286Y-35476390D02*
X102512905Y-35285914D01*
X102512905Y-35285914D02*
X102560524Y-35190676D01*
X102560524Y-35190676D02*
X102655762Y-35095438D01*
X102655762Y-35095438D02*
X102798619Y-35047819D01*
X102798619Y-35047819D02*
X102893857Y-35047819D01*
X102893857Y-35047819D02*
X103036714Y-35095438D01*
X103036714Y-35095438D02*
X103084333Y-35143057D01*
X103941476Y-35381152D02*
X103941476Y-36047819D01*
X103703381Y-35000200D02*
X103465286Y-35714485D01*
X103465286Y-35714485D02*
X104084333Y-35714485D01*
D14*
%TO.C,U2*%
X140200000Y-29800000D02*
X140200000Y-40200000D01*
X129800000Y-29800000D02*
X140200000Y-29800000D01*
X140200000Y-40200000D02*
X129800000Y-40200000D01*
X129800000Y-40200000D02*
X129800000Y-29800000D01*
D15*
X140400000Y-27950000D02*
G75*
G02*
X140000000Y-27950000I-200000J0D01*
G01*
X140000000Y-27950000D02*
G75*
G02*
X140400000Y-27950000I200000J0D01*
G01*
D16*
%TO.C,BT2*%
X31164600Y-49344600D02*
G75*
G02*
X37282700Y-33147401I9854582J5531752D01*
G01*
X44767300Y-33147401D02*
G75*
G02*
X50885403Y-49344602I-3736480J-10665449D01*
G01*
X45269700Y-54292800D02*
G75*
G02*
X36780300Y-54292800I-4244700J10506003D01*
G01*
D11*
%TO.C,N7*%
X222380000Y-54907480D02*
G75*
G02*
X237620000Y-54750000I7620000J78740D01*
G01*
X238872220Y-54750000D02*
G75*
G02*
X221127780Y-54750000I-8872220J0D01*
G01*
X221127780Y-54750000D02*
G75*
G02*
X238872220Y-54750000I8872220J0D01*
G01*
%TO.C,N3*%
X152380000Y-54907480D02*
G75*
G02*
X167620000Y-54750000I7620000J78740D01*
G01*
X168872220Y-54750000D02*
G75*
G02*
X151127780Y-54750000I-8872220J0D01*
G01*
X151127780Y-54750000D02*
G75*
G02*
X168872220Y-54750000I8872220J0D01*
G01*
%TO.C,N1*%
X102380000Y-54907480D02*
G75*
G02*
X117620000Y-54750000I7620000J78740D01*
G01*
X118872220Y-54750000D02*
G75*
G02*
X101127780Y-54750000I-8872220J0D01*
G01*
X101127780Y-54750000D02*
G75*
G02*
X118872220Y-54750000I8872220J0D01*
G01*
D17*
%TO.C,SW6*%
X94240798Y-26387390D02*
X94240798Y-31192042D01*
X96197038Y-32123950D02*
X98540297Y-32123950D01*
X98540297Y-25875550D02*
X96189700Y-25875550D01*
X100489198Y-31612110D02*
X100489198Y-26387390D01*
D11*
%TO.C,N2*%
X122380000Y-54767480D02*
G75*
G02*
X137620000Y-54610000I7620000J78740D01*
G01*
X138872220Y-54610000D02*
G75*
G02*
X121127780Y-54610000I-8872220J0D01*
G01*
X121127780Y-54610000D02*
G75*
G02*
X138872220Y-54610000I8872220J0D01*
G01*
%TO.C,N4*%
X141190000Y-54750000D02*
G75*
G02*
X148809955Y-54747865I3810000J-78740D01*
G01*
D16*
X147047498Y-54750000D02*
G75*
G02*
X142952502Y-54750000I-2047498J0D01*
G01*
X142952502Y-54750000D02*
G75*
G02*
X147047498Y-54750000I2047498J0D01*
G01*
D18*
%TO.C,U1*%
X67660000Y-24470000D02*
X67660000Y-60150000D01*
X67660000Y-60150000D02*
X72960000Y-60150000D01*
X69310000Y-24470000D02*
X67660000Y-24470000D01*
X72960000Y-24470000D02*
X71310000Y-24470000D01*
X72960000Y-60150000D02*
X72960000Y-24470000D01*
X71310000Y-24470000D02*
G75*
G02*
X69310000Y-24470000I-1000000J0D01*
G01*
D17*
%TO.C,C6*%
X62674500Y-48162149D02*
X62674500Y-49627851D01*
X64325500Y-49627851D02*
X64325500Y-48162149D01*
D11*
%TO.C,N6*%
X202380000Y-54907480D02*
G75*
G02*
X217620000Y-54750000I7620000J78740D01*
G01*
X218872220Y-54750000D02*
G75*
G02*
X201127780Y-54750000I-8872220J0D01*
G01*
X201127780Y-54750000D02*
G75*
G02*
X218872220Y-54750000I8872220J0D01*
G01*
D14*
%TO.C,U3*%
X199800000Y-29800000D02*
X210200000Y-29800000D01*
X199800000Y-40200000D02*
X199800000Y-29800000D01*
X210200000Y-29800000D02*
X210200000Y-40200000D01*
X210200000Y-40200000D02*
X199800000Y-40200000D01*
D15*
X210400000Y-27950000D02*
G75*
G02*
X210000000Y-27950000I-200000J0D01*
G01*
X210000000Y-27950000D02*
G75*
G02*
X210400000Y-27950000I200000J0D01*
G01*
D18*
%TO.C,C5*%
X92808252Y-36633000D02*
X95639748Y-36633000D01*
X92808252Y-41853000D02*
X95639748Y-41853000D01*
D11*
%TO.C,N5*%
X172380000Y-54907480D02*
G75*
G02*
X187620000Y-54750000I7620000J78740D01*
G01*
X188872220Y-54750000D02*
G75*
G02*
X171127780Y-54750000I-8872220J0D01*
G01*
X171127780Y-54750000D02*
G75*
G02*
X188872220Y-54750000I8872220J0D01*
G01*
D17*
%TO.C,SW4*%
X77064800Y-26387390D02*
X77064800Y-31192042D01*
X79021040Y-32123950D02*
X81364299Y-32123950D01*
X81364299Y-25875550D02*
X79013702Y-25875550D01*
X83313200Y-31612110D02*
X83313200Y-26387390D01*
%TO.C,SW5*%
X85652799Y-26387390D02*
X85652799Y-31192042D01*
X87609039Y-32123950D02*
X89952298Y-32123950D01*
X89952298Y-25875550D02*
X87601701Y-25875550D01*
X91901199Y-31612110D02*
X91901199Y-26387390D01*
D11*
%TO.C,N8*%
X191190000Y-54750000D02*
G75*
G02*
X198809955Y-54747865I3810000J-78740D01*
G01*
D16*
X197047498Y-54750000D02*
G75*
G02*
X192952502Y-54750000I-2047498J0D01*
G01*
X192952502Y-54750000D02*
G75*
G02*
X197047498Y-54750000I2047498J0D01*
G01*
D18*
%TO.C,C4*%
X101835252Y-36633000D02*
X104666748Y-36633000D01*
X101835252Y-41853000D02*
X104666748Y-41853000D01*
%TD*%
D19*
%TO.C,N4*%
X143412500Y-54750000D03*
X146587500Y-54750000D03*
%TD*%
%TO.C,N8*%
X193412500Y-54750000D03*
X196587500Y-54750000D03*
%TD*%
%LPC*%
D20*
%TO.C,BT2*%
X29225200Y-50906530D02*
X32207770Y-48872070D01*
X29242700Y-50922000D02*
X32225200Y-48889000D01*
X32207770Y-48872070D02*
X37080180Y-53182810D01*
X32225200Y-48889000D02*
X37097700Y-53198300D01*
X35424350Y-56391000D02*
X29225200Y-50906530D01*
X35442700Y-56406400D02*
X29242700Y-50922000D01*
X36886500Y-30685000D02*
X45163500Y-30685000D01*
X37080180Y-53182810D02*
X35424350Y-56391000D01*
X37097700Y-53198300D02*
X35442700Y-56406400D01*
X37772200Y-34185000D02*
X36886500Y-30685000D01*
X44277800Y-34185000D02*
X37772200Y-34185000D01*
X44952300Y-53198300D02*
X46607300Y-56406400D01*
X44969820Y-53182810D02*
X49842230Y-48872070D01*
X45163500Y-30685000D02*
X44277800Y-34185000D01*
X46607300Y-56406400D02*
X52807300Y-50922000D01*
X46625650Y-56391000D02*
X44969820Y-53182810D01*
X49824800Y-48889000D02*
X44952300Y-53198300D01*
X49842230Y-48872070D02*
X52824800Y-50906530D01*
X52807300Y-50922000D02*
X49824800Y-48889000D01*
X52824800Y-50906530D02*
X46625650Y-56391000D01*
D21*
X37081820Y-53184270D02*
X35425480Y-56392000D01*
X29224100Y-50905540D01*
X32206120Y-48870610D01*
X37081820Y-53184270D01*
G36*
X37081820Y-53184270D02*
G01*
X35425480Y-56392000D01*
X29224100Y-50905540D01*
X32206120Y-48870610D01*
X37081820Y-53184270D01*
G37*
X44280000Y-34185000D02*
X37770000Y-34185000D01*
X36885000Y-30685000D01*
X45165000Y-30685000D01*
X44280000Y-34185000D01*
G36*
X44280000Y-34185000D02*
G01*
X37770000Y-34185000D01*
X36885000Y-30685000D01*
X45165000Y-30685000D01*
X44280000Y-34185000D01*
G37*
X52825900Y-50905540D02*
X46624520Y-56392000D01*
X44968180Y-53184270D01*
X49843880Y-48870610D01*
X52825900Y-50905540D01*
G36*
X52825900Y-50905540D02*
G01*
X46624520Y-56392000D01*
X44968180Y-53184270D01*
X49843880Y-48870610D01*
X52825900Y-50905540D01*
G37*
%TD*%
D22*
%TO.C,U2*%
X139000000Y-28500000D03*
X138200000Y-28500000D03*
X137400000Y-28500000D03*
X136600000Y-28500000D03*
X135800000Y-28500000D03*
X135000000Y-28500000D03*
X134200000Y-28500000D03*
X133400000Y-28500000D03*
X132600000Y-28500000D03*
X131800000Y-28500000D03*
X131000000Y-28500000D03*
D23*
X128500000Y-31000000D03*
X128500000Y-31800000D03*
X128500000Y-32600000D03*
X128500000Y-33400000D03*
X128500000Y-34200000D03*
X128500000Y-35000000D03*
X128500000Y-35800000D03*
X128500000Y-36600000D03*
X128500000Y-37400000D03*
X128500000Y-38200000D03*
X128500000Y-39000000D03*
D22*
X131000000Y-41500000D03*
X131800000Y-41500000D03*
X132600000Y-41500000D03*
X133400000Y-41500000D03*
X134200000Y-41500000D03*
X135000000Y-41500000D03*
X135800000Y-41500000D03*
X136600000Y-41500000D03*
X137400000Y-41500000D03*
X138200000Y-41500000D03*
X139000000Y-41500000D03*
D23*
X141500000Y-39000000D03*
X141500000Y-38200000D03*
X141500000Y-37400000D03*
X141500000Y-36600000D03*
X141500000Y-35800000D03*
X141500000Y-35000000D03*
X141500000Y-34200000D03*
X141500000Y-33400000D03*
X141500000Y-32600000D03*
X141500000Y-31800000D03*
X141500000Y-31000000D03*
%TD*%
D24*
%TO.C,BT2*%
X38100000Y-43815000D03*
X43950000Y-43815000D03*
%TD*%
D25*
%TO.C,N7*%
X224907300Y-58265360D03*
X235092700Y-58265360D03*
X236144260Y-55494220D03*
X235786120Y-52555440D03*
X234104640Y-50117040D03*
X231480820Y-48740360D03*
X228519180Y-48740360D03*
X225895360Y-50117040D03*
X224213880Y-52555440D03*
X223855740Y-55494220D03*
X230000000Y-60937440D03*
X232875280Y-60228780D03*
X227124720Y-60228780D03*
%TD*%
%TO.C,N3*%
X154907300Y-58265360D03*
X165092700Y-58265360D03*
X166144260Y-55494220D03*
X165786120Y-52555440D03*
X164104640Y-50117040D03*
X161480820Y-48740360D03*
X158519180Y-48740360D03*
X155895360Y-50117040D03*
X154213880Y-52555440D03*
X153855740Y-55494220D03*
X160000000Y-60937440D03*
X162875280Y-60228780D03*
X157124720Y-60228780D03*
%TD*%
D26*
%TO.C,REF\u002A\u002A*%
X241935000Y-26670000D03*
%TD*%
D27*
%TO.C,R8*%
X220320000Y-64500000D03*
X219680000Y-64500000D03*
%TD*%
D25*
%TO.C,N1*%
X104907300Y-58265360D03*
X115092700Y-58265360D03*
X116144260Y-55494220D03*
X115786120Y-52555440D03*
X114104640Y-50117040D03*
X111480820Y-48740360D03*
X108519180Y-48740360D03*
X105895360Y-50117040D03*
X104213880Y-52555440D03*
X103855740Y-55494220D03*
X110000000Y-60937440D03*
X112875280Y-60228780D03*
X107124720Y-60228780D03*
%TD*%
D28*
%TO.C,R11*%
X195680000Y-64000000D03*
X196320000Y-64000000D03*
%TD*%
D27*
%TO.C,R9*%
X202320000Y-64000000D03*
X201680000Y-64000000D03*
%TD*%
D29*
%TO.C,SW6*%
X95114998Y-32249751D03*
D30*
X95114998Y-25749750D03*
X99614999Y-32249751D03*
X99614999Y-25749750D03*
%TD*%
D26*
%TO.C,REF\u002A\u002A*%
X33020000Y-26670000D03*
%TD*%
D25*
%TO.C,N2*%
X124907300Y-58125360D03*
X135092700Y-58125360D03*
X136144260Y-55354220D03*
X135786120Y-52415440D03*
X134104640Y-49977040D03*
X131480820Y-48600360D03*
X128519180Y-48600360D03*
X125895360Y-49977040D03*
X124213880Y-52415440D03*
X123855740Y-55354220D03*
X130000000Y-60797440D03*
X132875280Y-60088780D03*
X127124720Y-60088780D03*
%TD*%
D27*
%TO.C,R10*%
X191320000Y-64000000D03*
X190680000Y-64000000D03*
%TD*%
D19*
%TO.C,N4*%
X143412500Y-54750000D03*
X146587500Y-54750000D03*
%TD*%
D27*
%TO.C,R5*%
X150320000Y-64000000D03*
X149680000Y-64000000D03*
%TD*%
D31*
%TO.C,U1*%
X66500000Y-25800000D03*
D32*
X66500000Y-28340000D03*
X66500000Y-30880000D03*
X66500000Y-33420000D03*
X66500000Y-35960000D03*
X66500000Y-38500000D03*
X66500000Y-41040000D03*
X66500000Y-43580000D03*
X66500000Y-46120000D03*
X66500000Y-48660000D03*
X66500000Y-51200000D03*
X66500000Y-53740000D03*
X66500000Y-56280000D03*
X66500000Y-58820000D03*
X74120000Y-58820000D03*
X74120000Y-56280000D03*
X74120000Y-53740000D03*
X74120000Y-51200000D03*
X74120000Y-48660000D03*
X74120000Y-46120000D03*
X74120000Y-43580000D03*
X74120000Y-41040000D03*
X74120000Y-38500000D03*
X74120000Y-35960000D03*
X74120000Y-33420000D03*
X74120000Y-30880000D03*
X74120000Y-28340000D03*
X74120000Y-25800000D03*
%TD*%
D33*
%TO.C,C6*%
X63500000Y-50418001D03*
X63500000Y-47371999D03*
%TD*%
D27*
%TO.C,R4*%
X142320000Y-64000000D03*
X141680000Y-64000000D03*
%TD*%
D25*
%TO.C,N6*%
X204907300Y-58265360D03*
X215092700Y-58265360D03*
X216144260Y-55494220D03*
X215786120Y-52555440D03*
X214104640Y-50117040D03*
X211480820Y-48740360D03*
X208519180Y-48740360D03*
X205895360Y-50117040D03*
X204213880Y-52555440D03*
X203855740Y-55494220D03*
X210000000Y-60937440D03*
X212875280Y-60228780D03*
X207124720Y-60228780D03*
%TD*%
D28*
%TO.C,R7*%
X116680000Y-64000000D03*
X117320000Y-64000000D03*
%TD*%
D22*
%TO.C,U3*%
X209000000Y-28500000D03*
X208200000Y-28500000D03*
X207400000Y-28500000D03*
X206600000Y-28500000D03*
X205800000Y-28500000D03*
X205000000Y-28500000D03*
X204200000Y-28500000D03*
X203400000Y-28500000D03*
X202600000Y-28500000D03*
X201800000Y-28500000D03*
X201000000Y-28500000D03*
D23*
X198500000Y-31000000D03*
X198500000Y-31800000D03*
X198500000Y-32600000D03*
X198500000Y-33400000D03*
X198500000Y-34200000D03*
X198500000Y-35000000D03*
X198500000Y-35800000D03*
X198500000Y-36600000D03*
X198500000Y-37400000D03*
X198500000Y-38200000D03*
X198500000Y-39000000D03*
D22*
X201000000Y-41500000D03*
X201800000Y-41500000D03*
X202600000Y-41500000D03*
X203400000Y-41500000D03*
X204200000Y-41500000D03*
X205000000Y-41500000D03*
X205800000Y-41500000D03*
X206600000Y-41500000D03*
X207400000Y-41500000D03*
X208200000Y-41500000D03*
X209000000Y-41500000D03*
D23*
X211500000Y-39000000D03*
X211500000Y-38200000D03*
X211500000Y-37400000D03*
X211500000Y-36600000D03*
X211500000Y-35800000D03*
X211500000Y-35000000D03*
X211500000Y-34200000D03*
X211500000Y-33400000D03*
X211500000Y-32600000D03*
X211500000Y-31800000D03*
X211500000Y-31000000D03*
%TD*%
D26*
%TO.C,REF\u002A\u002A*%
X33020000Y-61595000D03*
%TD*%
D34*
%TO.C,C5*%
X91674000Y-39243000D03*
X96774000Y-39243000D03*
%TD*%
D25*
%TO.C,N5*%
X174907300Y-58265360D03*
X185092700Y-58265360D03*
X186144260Y-55494220D03*
X185786120Y-52555440D03*
X184104640Y-50117040D03*
X181480820Y-48740360D03*
X178519180Y-48740360D03*
X175895360Y-50117040D03*
X174213880Y-52555440D03*
X173855740Y-55494220D03*
X180000000Y-60937440D03*
X182875280Y-60228780D03*
X177124720Y-60228780D03*
%TD*%
D29*
%TO.C,SW4*%
X77939000Y-32249751D03*
D30*
X77939000Y-25749750D03*
X82439001Y-32249751D03*
X82439001Y-25749750D03*
%TD*%
D26*
%TO.C,REF\u002A\u002A*%
X241935000Y-61595000D03*
%TD*%
D27*
%TO.C,R6*%
X123320000Y-64000000D03*
X122680000Y-64000000D03*
%TD*%
D29*
%TO.C,SW5*%
X86526999Y-32249751D03*
D30*
X86526999Y-25749750D03*
X91027000Y-32249751D03*
X91027000Y-25749750D03*
%TD*%
D19*
%TO.C,N8*%
X193412500Y-54750000D03*
X196587500Y-54750000D03*
%TD*%
D34*
%TO.C,C4*%
X100701000Y-39243000D03*
X105801000Y-39243000D03*
%TD*%
D35*
%TO.C,J2*%
X85725000Y-51785000D03*
D36*
X85725000Y-57785000D03*
D37*
X81025000Y-54785000D03*
%TD*%
D38*
%TO.C,J3*%
X95990000Y-54610000D03*
%TD*%
%TO.C,J1*%
X78000000Y-51000000D03*
%TD*%
%LPD*%
M02*
